<?xml version="1.0" encoding="UTF-8"?>
<svg width="224px" height="255px" viewBox="0 0 224 255" version="1.1" xmlns="http://www.w3.org/2000/svg" xmlns:xlink="http://www.w3.org/1999/xlink">
    <!-- Generator: Sketch 63.1 (92452) - https://sketch.com -->
    <title>Deposit</title>
    <desc>Created with Sketch.</desc>
    <defs>
        <linearGradient x1="17.9732839%" y1="23.6719497%" x2="87.6615313%" y2="83.1697265%" id="linearGradient-1">
            <stop stop-color="#5A55F8" offset="0%"></stop>
            <stop stop-color="#8C6AE2" offset="100%"></stop>
        </linearGradient>
        <linearGradient x1="38.0727052%" y1="18.4380053%" x2="59.4768459%" y2="81.4642518%" id="linearGradient-2">
            <stop stop-color="#1AA9E8" offset="0%"></stop>
            <stop stop-color="#3D80EF" offset="42.23%"></stop>
            <stop stop-color="#5662F4" offset="79.09%"></stop>
            <stop stop-color="#5F57F6" offset="100%"></stop>
        </linearGradient>
        <linearGradient x1="50%" y1="111.737146%" x2="50%" y2="-15.5823593%" id="linearGradient-3">
            <stop stop-color="#FF57BD" offset="0%"></stop>
            <stop stop-color="#A281FF" offset="100%"></stop>
        </linearGradient>
        <linearGradient x1="50.008%" y1="116.834417%" x2="50.008%" y2="-18.4508341%" id="linearGradient-4">
            <stop stop-color="#FF57BD" offset="0%"></stop>
            <stop stop-color="#A281FF" offset="100%"></stop>
        </linearGradient>
        <linearGradient x1="49.996%" y1="119.538949%" x2="49.996%" y2="-19.7363462%" id="linearGradient-5">
            <stop stop-color="#FF57BD" offset="0%"></stop>
            <stop stop-color="#A281FF" offset="100%"></stop>
        </linearGradient>
        <linearGradient x1="50.0000005%" y1="119.589701%" x2="50.0000003%" y2="-20.6751935%" id="linearGradient-6">
            <stop stop-color="#FF57BD" offset="0%"></stop>
            <stop stop-color="#A281FF" offset="100%"></stop>
        </linearGradient>
        <linearGradient x1="49.9999989%" y1="116.072922%" x2="49.9999987%" y2="-22.6229558%" id="linearGradient-7">
            <stop stop-color="#FF57BD" offset="0%"></stop>
            <stop stop-color="#A281FF" offset="100%"></stop>
        </linearGradient>
        <linearGradient x1="50.0000013%" y1="109.066489%" x2="50.000001%" y2="-26.8729379%" id="linearGradient-8">
            <stop stop-color="#FF57BD" offset="0%"></stop>
            <stop stop-color="#A281FF" offset="100%"></stop>
        </linearGradient>
        <linearGradient x1="27.2822977%" y1="45.2714774%" x2="72.5116409%" y2="56.0004789%" id="linearGradient-9">
            <stop stop-color="#C7A0F6" offset="0%"></stop>
            <stop stop-color="#FF57BD" offset="100%"></stop>
        </linearGradient>
        <linearGradient x1="0%" y1="50%" x2="100%" y2="50%" id="linearGradient-10">
            <stop stop-color="#FF57BD" offset="0%"></stop>
            <stop stop-color="#FE6A77" offset="100%"></stop>
        </linearGradient>
        <linearGradient x1="13.9631717%" y1="25.228447%" x2="78.9965272%" y2="68.1747845%" id="linearGradient-11">
            <stop stop-color="#1AA9E8" offset="0%"></stop>
            <stop stop-color="#5A55F8" offset="100%"></stop>
        </linearGradient>
        <linearGradient x1="0.000265022818%" y1="49.9996154%" x2="99.999788%" y2="49.9996154%" id="linearGradient-12">
            <stop stop-color="#FFE2A8" offset="0%"></stop>
            <stop stop-color="#97E2C4" offset="41.81%"></stop>
            <stop stop-color="#00E2EC" offset="100%"></stop>
        </linearGradient>
        <linearGradient x1="0.000318027382%" y1="49.9987517%" x2="99.999841%" y2="49.9987517%" id="linearGradient-13">
            <stop stop-color="#FFE2A8" offset="0%"></stop>
            <stop stop-color="#97E2C4" offset="41.81%"></stop>
            <stop stop-color="#00E2EC" offset="100%"></stop>
        </linearGradient>
        <linearGradient x1="0%" y1="50.0002454%" x2="100%" y2="50.0002454%" id="linearGradient-14">
            <stop stop-color="#994574" offset="0%"></stop>
            <stop stop-color="#43256F" offset="100%"></stop>
        </linearGradient>
        <linearGradient x1="-0.000234639516%" y1="49.9991056%" x2="100%" y2="49.9991056%" id="linearGradient-15">
            <stop stop-color="#F4BEA3" offset="0%"></stop>
            <stop stop-color="#E8878E" offset="100%"></stop>
        </linearGradient>
        <linearGradient x1="0.000134519451%" y1="50.0005879%" x2="99.9998077%" y2="50.0005879%" id="linearGradient-16">
            <stop stop-color="#FE6A77" offset="0%"></stop>
            <stop stop-color="#C91C91" offset="100%"></stop>
        </linearGradient>
        <linearGradient x1="-0.00152960826%" y1="50.0000916%" x2="99.9981671%" y2="50.0000916%" id="linearGradient-17">
            <stop stop-color="#994574" offset="0%"></stop>
            <stop stop-color="#43256F" offset="100%"></stop>
        </linearGradient>
        <linearGradient x1="-0.00015877548%" y1="50.0002148%" x2="100%" y2="50.0002148%" id="linearGradient-18">
            <stop stop-color="#05C5DA" offset="0%"></stop>
            <stop stop-color="#5860C4" offset="100%"></stop>
        </linearGradient>
        <linearGradient x1="28.9823901%" y1="35.8146579%" x2="66.5939395%" y2="56.6870055%" id="linearGradient-19">
            <stop stop-color="#F9A144" offset="0%"></stop>
            <stop stop-color="#FDE1A7" offset="100%"></stop>
        </linearGradient>
        <linearGradient x1="0%" y1="49.9999625%" x2="100.000159%" y2="49.9999625%" id="linearGradient-20">
            <stop stop-color="#F4BEA3" offset="0%"></stop>
            <stop stop-color="#E8878E" offset="100%"></stop>
        </linearGradient>
        <linearGradient x1="-0.000399900428%" y1="49.9991098%" x2="99.9998261%" y2="49.9991098%" id="linearGradient-21">
            <stop stop-color="#F4BEA3" offset="0%"></stop>
            <stop stop-color="#E8878E" offset="100%"></stop>
        </linearGradient>
        <linearGradient x1="-0.000239322621%" y1="50.0012266%" x2="100%" y2="50.0012266%" id="linearGradient-22">
            <stop stop-color="#FE6A77" offset="0%"></stop>
            <stop stop-color="#C91C91" offset="100%"></stop>
        </linearGradient>
        <linearGradient x1="0.000342058013%" y1="50.0009292%" x2="100.000365%" y2="50.0009292%" id="linearGradient-23">
            <stop stop-color="#994574" offset="0%"></stop>
            <stop stop-color="#43256F" offset="100%"></stop>
        </linearGradient>
        <linearGradient x1="-0.000234167818%" y1="50.0000168%" x2="99.9997896%" y2="50.0000168%" id="linearGradient-24">
            <stop stop-color="#00E2EC" offset="0%"></stop>
            <stop stop-color="#0090B2" offset="100%"></stop>
        </linearGradient>
        <linearGradient x1="26.0343668%" y1="21.2083553%" x2="78.883323%" y2="75.6852851%" id="linearGradient-25">
            <stop stop-color="#FDE1A7" offset="0%"></stop>
            <stop stop-color="#F9A144" offset="100%"></stop>
        </linearGradient>
        <linearGradient x1="0.000216444918%" y1="49.9984162%" x2="100%" y2="49.9984162%" id="linearGradient-26">
            <stop stop-color="#C5188E" offset="0%"></stop>
            <stop stop-color="#9F36AD" offset="100%"></stop>
        </linearGradient>
        <linearGradient x1="0%" y1="49.9995131%" x2="100%" y2="49.9995131%" id="linearGradient-27">
            <stop stop-color="#E8878E" offset="0%"></stop>
            <stop stop-color="#E8878E" offset="100%"></stop>
        </linearGradient>
        <linearGradient x1="0.000205871949%" y1="50.0001597%" x2="99.9993052%" y2="50.0001597%" id="linearGradient-28">
            <stop stop-color="#F4BEA3" offset="0%"></stop>
            <stop stop-color="#E8878E" offset="100%"></stop>
        </linearGradient>
        <linearGradient x1="0.000198526396%" y1="50.0004034%" x2="100%" y2="50.0004034%" id="linearGradient-29">
            <stop stop-color="#FF57BD" offset="0%"></stop>
            <stop stop-color="#EFA69A" offset="100%"></stop>
        </linearGradient>
        <linearGradient x1="-0.000559024406%" y1="49.9998294%" x2="99.9990636%" y2="49.9998294%" id="linearGradient-30">
            <stop stop-color="#CB2090" offset="0%"></stop>
            <stop stop-color="#43256F" offset="100%"></stop>
        </linearGradient>
        <linearGradient x1="0.000550643986%" y1="49.9995001%" x2="99.9998953%" y2="49.9995001%" id="linearGradient-31">
            <stop stop-color="#994574" offset="0%"></stop>
            <stop stop-color="#43256F" offset="100%"></stop>
        </linearGradient>
        <linearGradient x1="0.00106432529%" y1="50.0008615%" x2="99.9987688%" y2="50.0008615%" id="linearGradient-32">
            <stop stop-color="#F4BEA3" offset="0%"></stop>
            <stop stop-color="#E8878E" offset="100%"></stop>
        </linearGradient>
        <linearGradient x1="-0.00035913451%" y1="49.9996266%" x2="100.000132%" y2="49.9996266%" id="linearGradient-33">
            <stop stop-color="#FDE1A7" offset="0%"></stop>
            <stop stop-color="#F9A144" offset="100%"></stop>
        </linearGradient>
        <linearGradient x1="0.00136203412%" y1="49.9980078%" x2="100.000416%" y2="49.9980078%" id="linearGradient-34">
            <stop stop-color="#FF57BD" offset="0%"></stop>
            <stop stop-color="#FE6A77" offset="100%"></stop>
        </linearGradient>
        <linearGradient x1="-0.00143397595%" y1="50.0011803%" x2="99.9979777%" y2="50.0011803%" id="linearGradient-35">
            <stop stop-color="#FFE2A8" offset="0%"></stop>
            <stop stop-color="#FAE2A9" offset="10.48%"></stop>
            <stop stop-color="#ECE2AD" offset="22.84%"></stop>
            <stop stop-color="#D4E2B3" offset="36.17%"></stop>
            <stop stop-color="#B3E2BC" offset="50.17%"></stop>
            <stop stop-color="#88E2C8" offset="64.71%"></stop>
            <stop stop-color="#54E2D6" offset="79.69%"></stop>
            <stop stop-color="#17E2E6" offset="94.76%"></stop>
            <stop stop-color="#00E2EC" offset="100%"></stop>
        </linearGradient>
        <linearGradient x1="-0.610722977%" y1="-3.77618095%" x2="69.1689188%" y2="60.4678424%" id="linearGradient-36">
            <stop stop-color="#5A55F8" offset="0%"></stop>
            <stop stop-color="#8C6AE2" offset="100%"></stop>
        </linearGradient>
        <linearGradient x1="78.5828063%" y1="33.7259975%" x2="21.4193105%" y2="66.2737765%" id="linearGradient-37">
            <stop stop-color="#994574" offset="0%"></stop>
            <stop stop-color="#43256F" offset="100%"></stop>
        </linearGradient>
        <linearGradient x1="99.9999036%" y1="49.9997714%" x2="-0.000107149821%" y2="49.9997714%" id="linearGradient-38">
            <stop stop-color="#0090B2" offset="0%"></stop>
            <stop stop-color="#00E2EC" offset="100%"></stop>
        </linearGradient>
        <linearGradient x1="100.000498%" y1="49.9990643%" x2="0.00419738049%" y2="49.9990643%" id="linearGradient-39">
            <stop stop-color="#F9A144" offset="0%"></stop>
            <stop stop-color="#FDE1A7" offset="100%"></stop>
        </linearGradient>
        <linearGradient x1="99.9998998%" y1="50.0005995%" x2="-0.00112484849%" y2="50.0005995%" id="linearGradient-40">
            <stop stop-color="#F9A144" offset="0%"></stop>
            <stop stop-color="#FDE1A7" offset="100%"></stop>
        </linearGradient>
        <linearGradient x1="99.9995308%" y1="49.9996945%" x2="-0.000294666594%" y2="49.9996945%" id="linearGradient-41">
            <stop stop-color="#FE6A77" offset="0%"></stop>
            <stop stop-color="#FF57BD" offset="100%"></stop>
        </linearGradient>
        <linearGradient x1="99.9979906%" y1="50.001766%" x2="0.00165151556%" y2="50.001766%" id="linearGradient-42">
            <stop stop-color="#0090B2" offset="0%"></stop>
            <stop stop-color="#00E2EC" offset="100%"></stop>
        </linearGradient>
        <linearGradient x1="50.0011477%" y1="99.9989263%" x2="50.0011477%" y2="2.12563707e-05%" id="linearGradient-43">
            <stop stop-color="#994574" offset="0%"></stop>
            <stop stop-color="#43256F" offset="100%"></stop>
        </linearGradient>
        <linearGradient x1="0.000641477965%" y1="49.9984077%" x2="99.9961511%" y2="49.9984077%" id="linearGradient-44">
            <stop stop-color="#FDE1A7" offset="0%"></stop>
            <stop stop-color="#F9A144" offset="100%"></stop>
        </linearGradient>
        <linearGradient x1="0.000209752616%" y1="50.0007922%" x2="100.000741%" y2="50.0007922%" id="linearGradient-45">
            <stop stop-color="#FDE1A7" offset="0%"></stop>
            <stop stop-color="#F9A144" offset="100%"></stop>
        </linearGradient>
        <linearGradient x1="-0.00407146439%" y1="50.0004734%" x2="99.9960265%" y2="50.0004734%" id="linearGradient-46">
            <stop stop-color="#994574" offset="0%"></stop>
            <stop stop-color="#43256F" offset="100%"></stop>
        </linearGradient>
        <linearGradient x1="-0.00029679753%" y1="49.9998994%" x2="100.001152%" y2="49.9998994%" id="linearGradient-47">
            <stop stop-color="#C7A0F6" offset="0%"></stop>
            <stop stop-color="#FF57BD" offset="100%"></stop>
        </linearGradient>
        <linearGradient x1="0%" y1="50%" x2="100%" y2="50%" id="linearGradient-48">
            <stop stop-color="#FDE1A7" offset="0%"></stop>
            <stop stop-color="#F9A144" offset="100%"></stop>
        </linearGradient>
        <linearGradient x1="0%" y1="50%" x2="100.001765%" y2="50%" id="linearGradient-49">
            <stop stop-color="#EA8124" offset="0%"></stop>
            <stop stop-color="#DE852E" offset="9.57%"></stop>
            <stop stop-color="#BE8E47" offset="26.9%"></stop>
            <stop stop-color="#8A9D70" offset="50%"></stop>
            <stop stop-color="#43B3A9" offset="77.68%"></stop>
            <stop stop-color="#05C5DA" offset="100%"></stop>
        </linearGradient>
        <linearGradient x1="30.9921095%" y1="45.3694326%" x2="72.2110789%" y2="55.4109054%" id="linearGradient-50">
            <stop stop-color="#00E2EC" offset="0%"></stop>
            <stop stop-color="#07E2EA" offset="1.65%"></stop>
            <stop stop-color="#48E2D9" offset="17.92%"></stop>
            <stop stop-color="#80E2CA" offset="33.96%"></stop>
            <stop stop-color="#ADE2BE" offset="49.36%"></stop>
            <stop stop-color="#D1E2B4" offset="64%"></stop>
            <stop stop-color="#EAE2AE" offset="77.7%"></stop>
            <stop stop-color="#FAE2A9" offset="90.08%"></stop>
            <stop stop-color="#FFE2A8" offset="100%"></stop>
        </linearGradient>
        <linearGradient x1="49.9997469%" y1="99.9998899%" x2="49.9997469%" y2="0.000166692506%" id="linearGradient-51">
            <stop stop-color="#FE6A77" offset="0%"></stop>
            <stop stop-color="#FF57BD" offset="100%"></stop>
        </linearGradient>
        <linearGradient x1="0.000638409374%" y1="50%" x2="100.002998%" y2="50%" id="linearGradient-52">
            <stop stop-color="#FDE1A7" offset="0%"></stop>
            <stop stop-color="#F9A144" offset="100%"></stop>
        </linearGradient>
        <linearGradient x1="35.4729016%" y1="17.0391407%" x2="73.639831%" y2="80.4775548%" id="linearGradient-53">
            <stop stop-color="#C7A0F6" offset="0%"></stop>
            <stop stop-color="#FF57BD" offset="100%"></stop>
        </linearGradient>
        <linearGradient x1="-0.00154710687%" y1="49.9989559%" x2="100.000384%" y2="49.9989559%" id="linearGradient-54">
            <stop stop-color="#FDE1A7" offset="0%"></stop>
            <stop stop-color="#F9A144" offset="100%"></stop>
        </linearGradient>
        <linearGradient x1="0.00125786176%" y1="49.9990914%" x2="100.000639%" y2="49.9990914%" id="linearGradient-55">
            <stop stop-color="#FDE1A7" offset="0%"></stop>
            <stop stop-color="#F9A144" offset="100%"></stop>
        </linearGradient>
        <linearGradient x1="0.00141675874%" y1="50.000327%" x2="99.999436%" y2="50.000327%" id="linearGradient-56">
            <stop stop-color="#FDE1A7" offset="0%"></stop>
            <stop stop-color="#F9A144" offset="100%"></stop>
        </linearGradient>
        <linearGradient x1="0.000171841478%" y1="49.9998858%" x2="100.000399%" y2="49.9998858%" id="linearGradient-57">
            <stop stop-color="#C7A0F6" offset="0%"></stop>
            <stop stop-color="#FF57BD" offset="100%"></stop>
        </linearGradient>
        <linearGradient x1="0.000268505031%" y1="50.0011207%" x2="99.9996644%" y2="50.0011207%" id="linearGradient-58">
            <stop stop-color="#FDE1A7" offset="0%"></stop>
            <stop stop-color="#F9A144" offset="100%"></stop>
        </linearGradient>
        <linearGradient x1="0%" y1="50.0011962%" x2="100%" y2="50.0011962%" id="linearGradient-59">
            <stop stop-color="#FDE1A7" offset="0%"></stop>
            <stop stop-color="#F9A144" offset="100%"></stop>
        </linearGradient>
        <linearGradient x1="23.692043%" y1="41.4002692%" x2="76.3092473%" y2="58.5998714%" id="linearGradient-60">
            <stop stop-color="#9F36AD" offset="0%"></stop>
            <stop stop-color="#43256F" offset="100%"></stop>
        </linearGradient>
        <linearGradient x1="49.999299%" y1="100.000877%" x2="49.999299%" y2="0.00034965897%" id="linearGradient-61">
            <stop stop-color="#994574" offset="0%"></stop>
            <stop stop-color="#43256F" offset="100%"></stop>
        </linearGradient>
        <linearGradient x1="0.00423165276%" y1="49.9937814%" x2="100.007254%" y2="49.9937814%" id="linearGradient-62">
            <stop stop-color="#FDE1A7" offset="0%"></stop>
            <stop stop-color="#F9A144" offset="100%"></stop>
        </linearGradient>
        <linearGradient x1="-0.00141637041%" y1="49.9987958%" x2="99.9985836%" y2="49.9987958%" id="linearGradient-63">
            <stop stop-color="#FDE1A7" offset="0%"></stop>
            <stop stop-color="#F9A144" offset="100%"></stop>
        </linearGradient>
        <linearGradient x1="0.000194627171%" y1="50.0002678%" x2="100.000172%" y2="50.0002678%" id="linearGradient-64">
            <stop stop-color="#FF57BD" offset="0%"></stop>
            <stop stop-color="#FE6A77" offset="100%"></stop>
        </linearGradient>
        <linearGradient x1="0.000490554445%" y1="50.0002758%" x2="99.9991058%" y2="50.0002758%" id="linearGradient-65">
            <stop stop-color="#FDE1A7" offset="0%"></stop>
            <stop stop-color="#F9A144" offset="100%"></stop>
        </linearGradient>
        <linearGradient x1="-0.00283674638%" y1="49.9907251%" x2="99.9954722%" y2="49.9907251%" id="linearGradient-66">
            <stop stop-color="#FF57BD" offset="0%"></stop>
            <stop stop-color="#FE6A77" offset="100%"></stop>
        </linearGradient>
        <linearGradient x1="-0.00244004277%" y1="49.9981455%" x2="99.9971927%" y2="49.9981455%" id="linearGradient-67">
            <stop stop-color="#FF57BD" offset="0%"></stop>
            <stop stop-color="#FE6A77" offset="100%"></stop>
        </linearGradient>
        <linearGradient x1="-0.000217712834%" y1="49.9987769%" x2="100.001463%" y2="49.9987769%" id="linearGradient-68">
            <stop stop-color="#FF57BD" offset="0%"></stop>
            <stop stop-color="#FE6A77" offset="100%"></stop>
        </linearGradient>
        <linearGradient x1="-0.0073697877%" y1="50.0066911%" x2="99.9988068%" y2="50.0066911%" id="linearGradient-69">
            <stop stop-color="#43256F" offset="0%"></stop>
            <stop stop-color="#994574" offset="100%"></stop>
        </linearGradient>
        <linearGradient x1="0.00239899274%" y1="49.9962241%" x2="100.002153%" y2="49.9962241%" id="linearGradient-70">
            <stop stop-color="#43256F" offset="0%"></stop>
            <stop stop-color="#994574" offset="100%"></stop>
        </linearGradient>
        <linearGradient x1="0.000472630099%" y1="50.0008743%" x2="99.9961092%" y2="50.0008743%" id="linearGradient-71">
            <stop stop-color="#43256F" offset="0%"></stop>
            <stop stop-color="#994574" offset="100%"></stop>
        </linearGradient>
        <linearGradient x1="0%" y1="50.0001522%" x2="100.000213%" y2="50.0001522%" id="linearGradient-72">
            <stop stop-color="#43256F" offset="0%"></stop>
            <stop stop-color="#994574" offset="100%"></stop>
        </linearGradient>
    </defs>
    <g id="Blazar.xyz" stroke="none" stroke-width="1" fill="none" fill-rule="evenodd">
        <g id="Blazar-landing-page-7" transform="translate(-480.000000, -1778.000000)" fill-rule="nonzero">
            <g id="Section-3" transform="translate(113.000000, 1645.000000)">
                <g id="Boxes" transform="translate(0.000000, 92.000000)">
                    <g id="Boxes-1">
                        <g id="dApp1">
                            <g id="Deposit" transform="translate(341.000000, 27.000000)">
                                <g id="background" transform="translate(26.000000, 26.000000)">
                                    <path d="M224.948192,58.968 C236.130775,67.392 241.119503,78.884928 238.670032,98.712108 C236.508714,116.208108 229.486052,123.228216 234.348368,139.104216 C238.875532,153.88542 255.865279,193.359636 228.513653,221.292 C201.162027,249.224364 153.531355,241.919784 136.46025,239.543892 C119.389146,237.168 98.2122509,232.956 74.0105482,239.76 C51.9627082,245.958444 32.7208862,241.808652 26.0116605,225.18 C19.3666131,208.710108 28.6319504,188.136108 35.3308038,176.472108 C42.0296573,164.808108 42.7469632,154.709352 32.7377411,150.552108 C20.9065683,145.638 12.9653137,131.382 25.444428,113.076 C36.5200472,96.828696 57.557241,81.067716 105.559694,69.984 C127.30836,64.962 142.942583,63.342 169.953869,54.648108 C185.963439,49.494888 210.198203,47.856744 224.948192,58.968 Z" id="Path" fill="url(#linearGradient-1)"></path>
                                    <path d="M234.348368,139.103892 C229.486052,123.228216 236.508714,116.208108 238.670032,98.711784 C241.119503,78.884928 236.130775,67.392 224.948192,58.968 C214.773986,51.30378 200.087851,49.706136 186.700517,51.143076 L186.700517,204.12 L230.954373,218.634876 C254.813144,190.911168 238.733562,153.422424 234.348368,139.103892 Z" id="Path" fill="url(#linearGradient-2)"></path>
                                    <path d="M209.876015,213.054624 L209.876015,52.227504 C209.553178,52.152012 209.229046,52.079112 208.903616,52.009452 L208.903616,213.054624 L209.876015,213.054624 Z" id="Path" fill="#1AA9E8"></path>
                                    <g id="Group" opacity="0.7" transform="translate(50.240590, 54.108000)">
                                        <path d="M121.171877,152.434872 L121.171877,0.08748 C120.678871,0.235224 120.192347,0.385884 119.713279,0.539784 C119.6585,0.55728 119.605991,0.573804 119.551212,0.5913 L119.551212,152.177292 C120.100618,152.261532 120.640947,152.347392 121.171877,152.434872 Z" id="Path" fill="url(#linearGradient-3)"></path>
                                        <path d="M97.3156995,150.283512 L97.3156995,6.906384 C96.7711563,7.040196 96.2324475,7.17012 95.6950353,7.299072 L95.6950353,150.254028 C96.2392543,150.261804 96.780232,150.2712 97.3156995,150.283512 Z" id="Path" fill="url(#linearGradient-4)"></path>
                                        <path d="M73.4595224,151.155072 L73.4595224,12.042756 C72.9201653,12.150648 72.3798359,12.25854 71.8388582,12.366756 L71.8388582,151.312212 C72.3817807,151.258104 72.9224342,151.204968 73.4595224,151.155072 Z" id="Path" fill="url(#linearGradient-5)"></path>
                                        <path d="M49.6033452,155.11338 L49.6033452,17.251056 C49.0594503,17.386812 48.5191209,17.52354 47.982681,17.660592 L47.982681,155.53782 C48.5200933,155.393316 49.0607469,155.252376 49.6033452,155.11338 Z" id="Path" fill="url(#linearGradient-6)"></path>
                                        <path d="M25.7474923,163.512108 L25.7474923,24.402384 C25.2019767,24.598404 24.6616472,24.795396 24.126828,24.99336 L24.126828,164.25342 C24.6626196,164.004912 25.2023008,163.757376 25.7474923,163.512108 Z" id="Path" fill="url(#linearGradient-7)"></path>
                                        <path d="M1.890991,176.794488 L1.890991,35.211996 C1.34320649,35.527248 0.801256384,35.843148 0.27032679,36.160668 L0.27032679,177.89868 C0.799959852,177.533856 1.3373721,177.16644 1.890991,176.794488 Z" id="Path" fill="url(#linearGradient-8)"></path>
                                    </g>
                                    <path d="M74.0105482,239.76 C98.2122509,232.956 119.389146,237.168 136.46025,239.543892 C153.531355,241.919784 201.162027,249.224364 228.513653,221.292 C231.347871,218.397384 233.699779,215.37738 235.6449,212.275404 C220.136764,204.029928 187.973062,192.469932 132.138263,195.048 C70.9889818,197.87166 44.188382,218.23668 34.191801,236.105928 C43.5203442,243.30294 58.025613,244.25388 74.0105482,239.76 Z" id="Path" fill="url(#linearGradient-9)"></path>
                                    <ellipse id="Oval" fill="url(#linearGradient-10)" cx="216.520738" cy="110.322" rx="2.10686347" ry="2.106"></ellipse>
                                    <ellipse id="Oval" fill="url(#linearGradient-10)" cx="202.015793" cy="109.917" rx="2.10686347" ry="2.106"></ellipse>
                                    <path d="M21.3927675,73.493892 C12.8032472,67.499892 24.5582489,56.034828 16.962844,47.304 C10.4801872,39.852 -2.11982878,33.09174 0.654748339,18.839304 C3.56546125,3.888 27.8754244,-0.755892 41.389819,1.897992 C49.9375262,3.576636 51.3747312,3.27078 66.3392962,0.864108 C85.8141697,-2.268 100.96738,4.212 108.584502,14.418 C115.787706,24.069312 116.904019,38.88 104.346141,45.802584 C94.1557284,51.42042 76.0091513,54.27 64.1783026,58.482 C40.355187,66.963348 30.3735162,79.761024 21.3927675,73.493892 Z" id="Path" fill="url(#linearGradient-11)"></path>
                                </g>
                                <g id="armchair" transform="translate(101.000000, 144.000000)">
                                    <path d="M95.948125,97.6516055 C94.458975,96.2085339 92.82975,94.9079003 91.09815,93.7635619 C88.400325,91.9801858 85.4581,90.5677287 82.3875,89.5297355 C76.2372,87.4589052 69.599075,86.8823855 63.12735,87.7737513 C56.66115,88.6741403 50.31585,91.1052552 45.012175,95.1563613 C42.366675,97.1788529 39.9906,99.6083565 38.0809,102.410068 C37.125725,103.80899 36.290475,105.300401 35.599525,106.863997 C35.234875,107.686399 34.913125,108.539416 34.63265,109.40339 L39.736775,110.685655 C40.30585,108.729549 41.153125,106.856907 42.250975,105.093833 C43.737525,102.70429 45.66445,100.549028 47.882575,98.7044226 C52.32695,95.0052223 57.897775,92.5657287 63.7325,91.5125894 C69.5747,90.4613835 75.71915,90.7327248 81.461575,92.4120116 C86.0366,93.7487381 90.384775,96.0074448 93.98155,99.1291587 L95.948125,97.6516055 Z" id="Path" fill="url(#linearGradient-12)"></path>
                                    <path d="M61.5238,87.0663948 C60.03465,85.6233232 58.405425,84.3226897 56.673825,83.1783513 C53.976,81.3949752 51.033775,79.9825181 47.963175,78.9445248 C41.812875,76.8736945 35.17475,76.2971748 28.703025,77.1885406 C22.236825,78.0889297 15.891525,80.5200445 10.58785,84.5711506 C7.94235,86.5936423 5.566275,89.0231458 3.656575,91.8248574 C2.7014,93.2237797 1.86615,94.71519 1.1752,96.2787861 C0.81055,97.1011887 0.4888,97.9542058 0.208325,98.8181797 L4.33745,99.4559284 C4.906525,97.4998219 5.7538,95.6271803 6.85165,93.8641065 C8.3382,91.4745629 10.265125,89.319301 12.48325,87.4746958 C16.927625,83.7754955 22.49845,81.3360019 28.333175,80.2828626 C34.175375,79.2316568 40.319825,79.5029981 46.06225,81.1822848 C50.637275,82.5190113 54.98545,84.7777181 58.582225,87.8994319 L61.5238,87.0663948 Z" id="Path" fill="url(#linearGradient-13)"></path>
                                    <path d="M129.891775,12.6756987 L75.725,0.0805645161 C75.725,0.0805645161 69.81065,37.0609665 50.266775,45.6533332 C27.3,55.7506452 5.85,55.7506452 5.85,55.7506452 L16.93835,81.3008758 C16.93835,81.3008758 35.75,94.4216129 64.566775,91.4139784 C111.074925,86.5598052 124.23125,44.6327419 129.891775,12.6756987 Z" id="Path" fill="url(#linearGradient-14)"></path>
                                </g>
                                <g id="right_leg" transform="translate(26.000000, 180.000000)">
                                    <path d="M31.9883916,54.2544406 C30.5971401,55.1922618 17.4361091,59.3943724 14.8711922,59.5306535 C12.1175924,59.6766229 3.11505231,45.0990582 3.40993007,42.4263971 C3.59146825,40.7790741 5.31494434,41.5179635 6.37332168,42.1841912 C7.43169902,42.8510647 13.5179371,47.1494118 16.5219231,47.4319853 C20.3287041,47.7898041 25.5507684,44.0456241 25.5507684,44.0456241 L31.9883916,54.2544406 Z" id="Path" fill="url(#linearGradient-15)"></path>
                                    <path d="M12.8112697,44.6366065 C13.1298545,45.5401959 11.2245155,50.9439706 6.98223776,53.7093159 C-0.221483077,44.6075418 0.877488671,40.2633371 0.877488671,40.2633371 C0.877488671,40.2633371 1.4084635,39.7905512 2.53471469,39.9833471 C3.92401762,40.2210318 12.8112697,44.6366065 12.8112697,44.6366065 Z" id="Path" fill="url(#linearGradient-16)"></path>
                                    <path d="M1.28862881,40.04955 C1.45003217,43.37649 4.10458154,48.1860529 7.03387385,52.8444794 C9.53968531,56.8298965 11.7421754,59.9750206 11.7996571,60.1477941 C11.8571387,60.3202447 10.5253175,60.9396459 9.96511469,60.5666488 C9.40458713,60.1939747 6.86954769,56.5163206 3.92434238,50.9439706 C0.866122238,45.1578335 0.142567552,42.6175782 0.242916923,41.3774841 C0.343591049,40.1380359 1.28862881,40.04955 1.28862881,40.04955 Z" id="Path" fill="url(#linearGradient-17)"></path>
                                    <path d="M113.540604,0.0913923529 C113.540604,0.0913923529 74.2332034,19.8624971 58.3478006,27.2345982 C43.7338145,34.0166859 22.0492573,44.7092682 21.9746028,45.4268435 C21.901169,46.1444188 28.5846319,55.4883988 30.9602165,55.6534218 C35.6149334,55.9763629 68.1989262,41.1210688 77.9419083,38.4296771 C85.7259667,36.2795347 123.028978,26.3335924 128.468303,25.4383994 C125.531217,20.4515418 113.540604,0.0913923529 113.540604,0.0913923529 Z" id="Path" fill="url(#linearGradient-18)"></path>
                                    <path d="M27.5749678,53.4270653 C27.4382459,53.4270653 27.3112666,53.34084 27.2664503,53.2048818 C27.2105924,53.0356606 27.3034724,52.8528759 27.473969,52.79733 C29.3549513,52.1840647 60.5015773,40.7077041 69.0322481,36.6315406 C69.1939762,36.5543576 69.3881799,36.6221753 69.4654716,36.783 C69.5430881,36.9435018 69.4748895,37.1366206 69.3134862,37.2138035 C60.7636548,41.2990094 29.5601966,52.7966841 27.6762915,53.4109182 C27.6425169,53.4222212 27.6084176,53.4270653 27.5749678,53.4270653 Z" id="Path" fill="#00E2EC"></path>
                                </g>
                                <g id="right_hand" transform="translate(99.000000, 147.000000)">
                                    <path d="M86.4041307,1.766565 C81.8029967,0.804195 75.8867456,-0.422577 71.6507963,0.610056 C61.4026986,3.108222 55.593,20.166813 46.5499151,22.533111 C41.2074334,23.931045 29.4433831,21.080565 20.4209629,19.170144 L18.7761786,28.668303 C28.1841254,32.429538 38.7593072,36.214749 44.3165085,36.712917 C53.5991753,37.54575 89.7828161,2.473191 86.4041307,1.766565 Z" id="Path" fill="url(#linearGradient-19)"></path>
                                    <path d="M12.3504124,17.73225 C4.27824742,16.89975 1.45105237,19.498815 0.161443299,20.72925 C0.161443299,20.72925 8.81448124,24.685623 18.7758557,28.668636 L20.42064,19.170477 C17.2650693,18.502146 14.4420718,17.947701 12.3504124,17.73225 Z" id="Path" fill="url(#linearGradient-20)"></path>
                                    <path d="M7.92751175,21.111867 C7.89457732,21.111867 7.86164289,21.101544 7.83322887,21.080232 C7.76090227,21.026286 7.74475794,20.922057 7.79706557,20.847798 C8.63269608,19.657323 11.289407,19.877769 13.4253019,20.054592 C14.2199258,20.120526 14.9057369,20.177469 15.3539035,20.146833 C15.4414058,20.13984 15.5195443,20.210103 15.5256792,20.302011 C15.5314911,20.393919 15.4640078,20.473173 15.375214,20.479167 C14.9044454,20.511468 14.2070103,20.453193 13.3997938,20.38626 C11.4537563,20.225421 8.78800454,20.003976 8.05924948,21.042936 C8.02696082,21.088224 7.97755918,21.111867 7.92751175,21.111867 Z" id="Path" fill="#C66C50"></path>
                                    <path d="M18.7761786,29.001636 C18.7574511,29.001636 18.7384008,28.999971 18.7190276,28.996308 C18.5433773,28.964007 18.4264924,28.79118 18.4578124,28.610028 L20.1025967,19.111869 C20.1339167,18.930717 20.3014948,18.810837 20.4771452,18.842472 C20.6527955,18.874773 20.7696804,19.0476 20.7383604,19.228752 L19.0935761,28.726911 C19.0658078,28.888416 18.9298726,29.001636 18.7761786,29.001636 Z" id="Path" fill="#FDE1A7"></path>
                                </g>
                                <g id="left_leg" transform="translate(86.000000, 166.000000)">
                                    <path d="M39.6057558,64.4355 C40.1869088,65.816064 46.2940116,75.0465 45.971686,77.3145 C45.6255084,79.74936 29.4444419,88.810344 27.1559302,88.0875 C25.7457558,87.642 26.8336047,86.0625 27.5991279,85.2525 C28.3646512,84.4425 34.247093,78.408 33.6427326,74.763 C33.3171837,72.799236 30.5806395,68.526 30.5806395,68.526 L39.6057558,64.4355 Z" id="Path" fill="url(#linearGradient-21)"></path>
                                    <path d="M30.1374419,79.0965 C30.9835465,78.975 35.8990116,81 37.5912209,84.7665 C28.3849577,89.484912 24.255,88.776 24.255,88.776 C24.255,88.776 23.9326744,88.229088 24.2952907,87.2775 C24.7426786,86.103324 30.1374419,79.0965 30.1374419,79.0965 Z" id="Path" fill="url(#linearGradient-22)"></path>
                                    <path d="M24.1238135,88.128972 C25.1613795,88.128 31.6040233,86.142852 36.2190809,84.482676 C40.8341386,82.8225 47.2406819,79.5825 47.4018447,79.562088 C47.5630074,79.541676 47.9056395,80.574588 47.482426,81 C47.0592126,81.425412 39.1893112,85.509108 33.9044609,87.419412 C28.9167949,89.222148 26.1886312,89.829324 25.1210888,89.525412 C24.0535465,89.2215 24.1238135,88.128972 24.1238135,88.128972 Z" id="Path" fill="url(#linearGradient-23)"></path>
                                    <path d="M9.8847586,0.108216 C-0.564069767,1.458 -1.12749488,13.30992 1.18196791,20.412324 C5.2377907,32.886 28.258606,68.862636 29.1169591,69.876432 C30.3724172,71.35938 41.0430056,65.772324 41.4726656,64.800324 C41.9023256,63.828324 35.1599191,48.667068 31.8028981,42.120324 C27.8276567,34.367976 20.0918428,20.844216 20.0918428,20.844216 C20.0918428,20.844216 47.5433456,59.211 75.8541684,53.892216 C76.1216986,53.841996 76.3866502,53.78724 76.6525688,53.734428 L53.7058884,14.348016 C47.7383526,13.563612 21.0120823,-1.329372 9.8847586,0.108216 Z" id="Path" fill="url(#linearGradient-24)"></path>
                                    <path d="M71.307766,46.773288 C61.0500767,46.773288 45.0350079,37.28916 24.8567819,19.241064 C24.3504084,18.788112 23.993594,18.468648 23.8063228,18.311184 C23.6699791,18.196164 23.6519288,17.99172 23.7663544,17.854668 C23.8804577,17.716968 24.0835228,17.699796 24.2205112,17.814492 C24.4103609,17.974548 24.7716879,18.2979 25.2851526,18.757008 C51.5405051,42.240204 65.3750414,46.580184 72.3637047,46.088676 C72.5445293,46.0728 72.6953777,46.2105 72.707626,46.389024 C72.7201967,46.567548 72.5864316,46.72242 72.4088302,46.734732 C72.0497595,46.760652 71.681986,46.773288 71.307766,46.773288 Z" id="Path" fill="#00E2EC"></path>
                                    <path d="M13.6988372,21.627 C13.5782874,21.627 13.4625726,21.558636 13.4074549,21.441672 C12.9329916,20.435328 11.4892953,17.37126 12.7541009,15.224436 C13.4680521,14.012028 14.9181949,13.332276 17.0642386,13.203972 C17.242807,13.192956 17.3946223,13.32936 17.4052591,13.507884 C17.4158958,13.686732 17.2805191,13.839984 17.1029177,13.850676 C15.1837912,13.965372 13.9073819,14.538852 13.3091456,15.554592 C12.585847,16.782876 12.8150205,18.670176 13.9905419,21.164652 C14.0666107,21.326328 13.9979553,21.519432 13.8371149,21.595896 C13.7923116,21.616956 13.7452521,21.627 13.6988372,21.627 Z" id="Path" fill="#00FFFF"></path>
                                    <path d="M37.8677763,67.462632 C37.739813,67.462632 37.6189409,67.385844 37.5683358,67.258836 C34.5278386,59.621832 19.9074726,30.845772 18.0202563,27.876312 C17.9245256,27.725652 17.9683619,27.52542 18.1182433,27.428868 C18.2687693,27.33264 18.4676442,27.376704 18.5633749,27.527688 C20.4567153,30.50622 35.1186614,59.361984 38.1665721,67.018428 C38.2329712,67.18464 38.1523898,67.373208 37.9870367,67.439628 C37.9480353,67.45518 37.9077447,67.462632 37.8677763,67.462632 Z" id="Path" fill="#00FFFF"></path>
                                    <path d="M59.7746344,43.860852 C59.7639977,43.860852 59.7536833,43.860204 59.7427242,43.859232 C59.5657674,43.841736 59.4361926,43.6833 59.4535981,43.5051 C59.6592419,41.40396 61.6985958,37.091196 65.4233902,34.50762 C65.5703707,34.406208 65.7705349,34.44282 65.8720674,34.59024 C65.9729553,34.73766 65.9362102,34.939512 65.7898744,35.041248 C62.1050484,37.596636 60.2629577,41.85594 60.0953484,43.56828 C60.0785874,43.735788 59.9383758,43.860852 59.7746344,43.860852 Z" id="Path" fill="#00E2EC"></path>
                                </g>
                                <g id="body" transform="translate(139.000000, 147.000000)">
                                    <path d="M70.6403985,25.0902622 C70.7753165,12.0044444 56.7820253,4.94777778 49.9338866,2.48751556 C48.8412775,2.09493778 43.1850759,0.560964444 38.3319114,0.23652 C33.4787468,-0.0879244444 28.3447458,6.06386667 23.4029301,14.6003244 C17.9567089,24.0088889 9.00682633,33.74352 0.647088608,32.8772533 C0.608263291,32.8730356 0.56458481,32.8658978 0.523818228,32.8607067 L23.5572608,72.3011467 C52.3992942,66.55848 70.4385068,44.6724311 70.6403985,25.0902622 Z" id="Path" fill="url(#linearGradient-25)"></path>
                                    <path d="M23.5579078,72.6259156 C23.4466086,72.6259156 23.3385448,72.5684889 23.2783656,72.4653156 L0.244923038,33.0248756 C0.154654177,32.8701156 0.206421266,32.6715556 0.360428354,32.5810356 C0.514435443,32.4901911 0.712768101,32.5424267 0.803036962,32.6971867 L23.836803,72.1376267 C23.9267484,72.2923867 23.8749813,72.4909467 23.7209742,72.5814667 C23.6695306,72.61164 23.6132339,72.6259156 23.5579078,72.6259156 Z" id="Path" fill="#FFFFFF"></path>
                                </g>
                                <g id="head" transform="translate(176.000000, 112.000000)">
                                    <path d="M6.76646069,6.297912 C6.16180966,6.202332 6.81539586,8.503704 5.86585241,8.721108 C4.7762069,8.970912 3.37284,8.4645 3.2404469,10.746108 C3.15162621,12.278304 3.6875669,14.742 3.91079172,15.201108 C4.13401655,15.660216 11.0610248,12.123432 11.0610248,11.394108 C11.0610248,11.070108 7.11973241,6.35364 6.76646069,6.297912 Z" id="Path" fill="url(#linearGradient-26)"></path>
                                    <path d="M6.53586207,32.130108 C6.14840276,33.066144 3.46367172,39.906108 3.46367172,40.338 C3.46367172,40.769892 4.65051724,44.2665 9.5316331,44.307 C14.1412593,44.345232 16.1442497,41.796324 16.3118359,41.202108 C16.4794221,40.607892 17.2479724,27.219564 17.2479724,27.219564 C17.2479724,27.219564 12.2894317,28.079784 10.3903448,29.051784 C8.49125793,30.023784 6.53586207,32.130108 6.53586207,32.130108 Z" id="Path" fill="url(#linearGradient-27)"></path>
                                    <path d="M18.3738166,25.483896 C18.5883269,25.071768 18.7646276,24.661584 18.8953448,24.2595 C19.3478276,22.8663 22.9593103,18.144 18.8953448,13.689 C14.8313793,9.234 9.55643586,9.516852 9.55643586,9.516852 C0.502758621,12.8385 -1.70669793,27.145044 1.46637931,30.7395 C5.06277931,34.813476 10.8639434,33.003936 14.8384179,29.696544 C15.4015076,30.183192 16.1854759,30.486456 17.0532372,30.486456 C18.7663034,30.486456 20.1552579,29.310012 20.1552579,27.85914 C20.1555931,26.808408 19.4255876,25.904448 18.3738166,25.483896 Z" id="Path" fill="url(#linearGradient-28)"></path>
                                    <path d="M8.68968,16.640316 C7.83934759,17.093592 2.03483172,20.919708 2.1226469,22.16646 C2.21046207,23.413212 4.4091931,23.214924 5.64061655,23.044824 C6.87170483,22.875048 9.21724138,17.309376 9.21724138,16.923816 C9.21724138,16.484472 8.68968,16.640316 8.68968,16.640316 Z" id="Path" fill="url(#linearGradient-29)"></path>
                                    <path d="M2.80706897,25.251912 C3.33094345,26.223912 6.24258621,26.932824 7.35301241,26.973324 C7.12241379,27.459324 5.62553379,29.274696 3.83370207,28.714824 C1.75965517,28.0665 2.80706897,25.251912 2.80706897,25.251912 Z" id="Path" fill="#FFFFFF"></path>
                                    <path d="M10.8505366,21.627 C10.742611,21.627 10.6326745,21.60432 10.5284359,21.556692 C10.1520372,21.384324 9.99115448,20.949516 10.1698014,20.585664 C10.6236248,19.659348 11.6988579,18.670824 12.2110014,18.423288 C12.5830428,18.244116 13.0361959,18.389268 13.2228869,18.749232 C13.4092428,19.109196 13.25808,19.54692 12.8857034,19.727388 C12.6792372,19.83042 11.8453283,20.572056 11.5329476,21.210012 C11.403571,21.4731 11.1330869,21.627 10.8505366,21.627 Z" id="Path" fill="#0090B2"></path>
                                    <path d="M4.67498483,17.98362 C4.57879034,17.98362 4.48092,17.963532 4.38841241,17.921088 C4.05391034,17.767836 3.9111269,17.381304 4.06966345,17.057952 C4.41220966,16.358436 5.26689931,15.515712 5.74586069,15.284052 C6.07734621,15.123672 6.4795531,15.254244 6.64546345,15.574032 C6.81070345,15.89382 6.67696966,16.28262 6.34648966,16.443 C6.17655724,16.530804 5.52866897,17.108496 5.28131172,17.61264 C5.16668276,17.846892 4.92569379,17.98362 4.67498483,17.98362 Z" id="Path" fill="#0090B2"></path>
                                    <path d="M19.5656897,8.586 C18.7277586,7.857 18.8896469,5.635008 17.5127586,5.0625 C16.1164303,4.481892 14.2401352,5.627556 13.3231034,5.184 C12.59712,4.833108 12.4851724,3.2805 12.1918966,2.268 C11.8986207,1.2555 11.2564303,0.054108 9.97137931,0.162 C6.06360414,0.490212 5.20053517,6.029964 8.21775724,10.11204 C11.3402234,14.337 18.7699903,14.957784 18.6861972,20.114892 C18.6399434,22.949892 14.9711462,24.057 15.7011517,25.495884 C16.4184207,26.909496 18.3024248,25.536384 18.368789,25.487136 C18.3697945,25.485192 18.3718055,25.481952 18.372811,25.480332 C19.1631476,25.79526 19.7714855,26.38494 20.0255462,27.103896 C22.03524,26.040852 26.1431131,23.31342 26.3113697,18.711 C26.5372759,12.528756 20.4036207,9.315 19.5656897,8.586 Z" id="Path" fill="url(#linearGradient-30)"></path>
                                </g>
                                <g id="phone" transform="translate(139.000000, 139.000000)" fill="url(#linearGradient-31)">
                                    <path d="M0.2835,6.811875 C0.2835,6.3 0.162,0.55125 0.648,0.315 C1.134,0.07875 8.126244,2.263905 8.667,4.095 C9.254412,6.083595 8.954712,19.591425 8.019324,20.22552 C6.682824,21.131145 0.635688,17.472735 0.392688,16.17336 C0.149688,14.873985 0.2835,6.811875 0.2835,6.811875 Z" id="Path"></path>
                                </g>
                                <g id="signal" transform="translate(131.000000, 122.000000)" fill="#FF9BBB">
                                    <g id="Group">
                                        <path d="M6.38946,14.9055882 L5.289165,14.2864941 C6.332445,12.4015765 8.08416,11.2764706 9.975105,11.2764706 C10.91664,11.2764706 11.848095,11.5598118 12.668355,12.096 L11.98323,13.1620235 C11.358585,12.7538471 10.68291,12.5467412 9.975105,12.5467412 C8.54721,12.5470588 7.20657,13.4288471 6.38946,14.9055882 Z" id="Path"></path>
                                        <path d="M4.49442,11.1516353 L3.18591,10.6021059 C4.067595,8.46815294 5.8212,7.01587059 7.99659,6.61817647 C9.95715,6.25955294 11.86542,6.83894118 13.10211,8.16797647 L12.068595,9.14601176 C11.175885,8.18671765 9.713025,7.75694118 8.24985,8.02471765 C6.55641,8.33410588 5.187735,9.47414118 4.49442,11.1516353 Z" id="Path"></path>
                                        <path d="M1.73439,6.26431765 L0.17262,5.19067059 C2.31336,2.02436471 5.48856,0.208376471 8.88489,0.208376471 C10.423665,0.208376471 11.914875,0.575258824 13.31631,1.29885882 L12.4551,2.99541176 C11.322675,2.41062353 10.121265,2.11425882 8.88489,2.11425882 C6.1236,2.11457647 3.517605,3.62689412 1.73439,6.26431765 Z" id="Path"></path>
                                    </g>
                                </g>
                                <g id="left_hand" transform="translate(138.000000, 144.000000)">
                                    <path d="M13.4211174,20.0436671 C13.4207905,20.0430212 13.4204637,20.0423753 13.4201368,20.0417294 C12.2444858,17.4510953 11.5211842,10.9528729 11.4123458,8.34253941 C11.3035074,5.73220588 10.9498642,5.26329529 10.4046916,5.24747118 C9.70328842,5.22712588 9.39671053,5.77225059 9.04960421,7.38695647 C8.72635737,8.89057059 8.90644737,12.4329124 8.13019737,12.6751182 C7.35394737,12.9173241 4.16691,6.87348 3.35013158,4.80342706 C2.41046053,2.42173588 2.32776947,0.355235294 1.40607474,0.310346471 C0.830832632,0.282250588 0.725262632,1.05214235 0.694539474,2.19987529 C0.666431053,3.24975706 0.980526316,5.08632353 0.980526316,5.08632353 C0.980526316,5.08632353 0.340569474,5.22099 0.204276316,6.21661765 C0.000653684211,7.70279294 0.408552632,9.16345588 0.408552632,9.16345588 C0.408552632,9.16345588 -0.00849789474,9.90557471 0.224540526,11.5855147 C0.571973684,14.0883088 1.78848,16.7054241 3.37725947,19.215 C3.74626421,19.7979088 4.42446158,22.0071494 5.23960579,24.7589312 C6.90388579,24.5641976 9.76015895,23.6722341 13.4211174,20.0436671 Z" id="Path" fill="url(#linearGradient-32)"></path>
                                    <path d="M3.06414474,9.64786765 C3.01348421,9.64786765 2.96380421,9.62493882 2.93177368,9.58134176 C2.25521053,8.66192824 0.990004737,5.50453235 0.780172105,4.85994176 C0.752717368,4.77468529 0.799782632,4.68393882 0.885742105,4.65681176 C0.972028421,4.62936176 1.06354421,4.67618824 1.09132579,4.76079882 C1.29069947,5.37438706 2.55067579,8.51499 3.19586211,9.39145235 C3.24913737,9.46379118 3.23279526,9.56454882 3.15990947,9.61686529 C3.13114737,9.63785647 3.09780947,9.64786765 3.06414474,9.64786765 Z" id="Path" fill="#C66C50"></path>
                                    <path d="M1.59237474,11.9081329 C1.55119263,11.9081329 1.50968368,11.8923088 1.47798,11.8609835 C1.27893316,11.6646353 0.411821053,10.0014882 0.2484,9.19478118 C0.230750526,9.10726412 0.288274737,9.02233059 0.376522105,9.00489176 C0.465423158,8.98616118 0.551055789,9.04396765 0.568705263,9.13180765 C0.731145789,9.93367059 1.57701316,11.4992894 1.70905737,11.6326641 C1.77181105,11.6962835 1.77148421,11.7986559 1.70742316,11.8609835 C1.67539263,11.8923088 1.63388368,11.9081329 1.59237474,11.9081329 Z" id="Path" fill="#C66C50"></path>
                                    <path d="M61.7731579,22.1214706 C47.3921053,21.4755882 34.3056742,42.6282353 30.1240563,42.3056171 C28.0270374,42.1438235 16.3443932,26.4840829 13.4211174,20.0436671 C9.76048579,23.6719112 6.90421263,24.5641976 5.23993263,24.7589312 C6.25968,28.20213 7.49383579,32.49531 8.60706,35.5235294 C12.5834211,46.3420588 17.3226316,56.4071665 25.7388158,59.1789706 C36.3088895,62.6599535 48.8628947,55.3844118 57.3607895,47.4723529 C65.8586842,39.5602941 76.1542105,22.7673529 61.7731579,22.1214706 Z" id="Path" fill="url(#linearGradient-33)"></path>
                                    <path d="M31.5333995,60.4084076 C29.5628684,60.4084076 27.5854737,60.1277718 25.6355337,59.4854418 C17.0676947,56.6639047 12.2405637,46.3546535 8.29982842,35.6342982 C7.32289737,32.9768153 6.25902632,29.3689165 5.32033579,26.1853624 L4.92583737,24.8500006 C4.89870947,24.7586082 4.91374421,24.6604341 4.96701947,24.5809906 C5.01996789,24.50187 5.10560053,24.4498765 5.20103842,24.4385735 C6.92055474,24.2377041 9.70230789,23.2724329 13.1893863,19.8163165 C13.2652137,19.7413941 13.3737253,19.7078082 13.4796221,19.7268618 C13.5855189,19.7459153 13.6750737,19.8150247 13.7188705,19.91223 C16.8000111,26.6998076 28.3986568,41.8493012 30.14955,41.9842906 C31.4677042,42.09183 34.1938942,39.3926876 37.3381153,36.2721071 C43.6739495,29.9857341 52.3522611,21.3812894 61.7881926,21.7994982 C64.5522963,21.9238306 66.58362,22.6494794 67.82562,23.9564224 C67.9494932,24.0862447 67.9426295,24.2906665 67.8112389,24.4127382 C67.6795216,24.5354559 67.4729574,24.5286741 67.3494111,24.3985288 C66.2276889,23.2185018 64.3463858,22.5613165 61.75845,22.4447347 C52.6127542,22.0252341 44.0511253,30.5266606 37.8015774,36.7281 C34.2765853,40.2265218 31.7298316,42.74514 30.0988895,42.6285582 C27.8064189,42.4515865 16.4444068,27.0605329 13.3201232,20.5968653 C10.0932111,23.6919335 7.43598474,24.7311582 5.65927105,25.0266494 L5.94819947,26.0051612 C6.88394842,29.1790271 7.94455105,32.7769147 8.91396474,35.4140524 C12.79881,45.9823024 17.5383474,56.1384794 25.8424247,58.8737912 C38.7291553,63.1182071 53.0533374,51.04053 57.1369026,47.2385435 C58.7619616,45.7252412 60.4255879,43.9106347 61.9480184,41.9901035 C62.0594716,41.8496241 62.2647284,41.8247576 62.4065779,41.9348806 C62.5490811,42.0450035 62.5739211,42.2478106 62.4624679,42.3879671 C60.9201,44.3336876 59.2335947,46.1738065 57.5850032,47.7084229 C54.0459568,51.0024229 42.9313642,60.4074388 31.5333995,60.4084076 Z" id="Path" fill="#FFFFFF"></path>
                                </g>
                                <g id="armrest" transform="translate(171.000000, 200.000000)">
                                    <path d="M5.984928,22.1592738 C7.081668,19.5144369 8.608356,17.0733046 10.44738,14.9375631 C12.285756,12.7981662 14.4342,10.96416 16.764084,9.46046769 C19.09494,7.95577846 21.607884,6.77907692 24.199236,5.90809846 C26.516484,5.12750769 28.902744,4.58385231 31.313952,4.27115077 C31.28382,3.68961231 31.148064,3.14662154 30.890484,2.65580308 C28.7469,-1.42992 19.097208,-0.230289231 10.878948,4.29042462 C2.520396,8.88823385 -1.405512,15.4024615 0.738072,19.4881846 C1.628748,21.18528 3.468096,22.1489723 5.900688,22.3736123 C5.929848,22.3021662 5.955444,22.2300554 5.984928,22.1592738 Z" id="Path" fill="url(#linearGradient-34)"></path>
                                    <path d="M30.881088,3.42077538 C28.177956,3.70888615 25.500744,4.28776615 22.909068,5.16073846 C20.317716,6.03171692 17.804772,7.20841846 15.473916,8.71310769 C13.144032,10.2168 10.995588,12.0511385 9.157212,14.1902031 C7.317864,16.3262769 5.791176,18.7670769 4.69476,21.4119138 C3.595752,24.0547569 2.93058,26.8999754 2.759508,29.7840738 C2.637684,31.7839015 2.763396,33.8076554 3.107484,35.7822277 C4.183164,35.5419692 5.235192,35.2761231 6.270696,34.9913354 C5.959332,33.3311262 5.829732,31.6433354 5.897124,29.9508923 C5.996268,27.4346585 6.526008,24.9330462 7.44876,22.5829662 C8.36892,20.2312246 9.679176,18.0326769 11.290428,16.0826954 C12.900384,14.1297231 14.809716,12.4263138 16.9128,11.0076923 C21.125124,8.16978462 26.086212,6.45806769 31.146444,5.80342154 C35.163396,5.29499077 39.291156,5.45449846 43.230348,6.39692308 C43.617852,5.76886154 43.997904,5.13581538 44.369532,4.49712 C39.990024,3.25595077 35.386956,2.94756923 30.881088,3.42077538 Z" id="Path" fill="url(#linearGradient-35)"></path>
                                </g>
                                <g id="flowerpot" transform="translate(235.000000, 222.000000)">
                                    <path d="M29.2289481,8.52124737 L0.0703027682,8.52124737 L4.61872837,34.9951737 C9.65207958,32.1532105 14.3885242,28.6079684 18.6384083,24.2052632 C23.405917,19.2660632 26.8363651,13.9743947 29.2289481,8.52124737 Z" id="Path" fill="url(#linearGradient-36)"></path>
                                    <path d="M15.2985363,0.275873684 C6.86776298,0.275873684 0.0326989619,4.23293684 0.0326989619,9.11377895 C0.0326989619,13.9956158 6.86743599,17.9520158 15.2985363,17.9520158 C19.1442612,17.9520158 22.6548218,17.1270474 25.3390796,15.7682368 C27.2398702,12.8122105 28.7685467,9.77826316 29.9833131,6.70021579 C28.1688478,2.99283158 22.2833616,0.275873684 15.2985363,0.275873684 Z" id="Path" fill="#FF9BBB"></path>
                                    <ellipse id="Oval" fill="url(#linearGradient-37)" cx="15.2985363" cy="8.71057895" rx="12.3579187" ry="6.93895263"></ellipse>
                                </g>
                                <g id="flowers" transform="translate(213.000000, 165.000000)">
                                    <path d="M36.2006182,54.4767722 C35.4829091,52.5254765 28.1703273,42.3247716 15.3402545,41.3492856 C3.75021818,40.4676273 -0.828654545,45.7248987 0.311890909,48.0460056 C1.07443636,49.5983711 3.81076364,49.1547919 4.93232727,48.8441894 C6.05389091,48.5339104 8.02145455,47.4218886 9.32890909,48.0903311 C10.6301455,48.7558618 10.4750182,50.4583519 11.7962182,51.1060876 C14.1653455,52.2672881 16.6038545,50.3273165 18.6152727,49.553722 C21.0374182,48.6225615 25.1198182,47.7800522 28.0358182,50.4408805 C31.6057091,53.6986481 32.3522182,56.5151013 33.4692,61.461123 C34.5855273,66.4068213 35.1137455,68.8534633 35.3484,69.1563008 C35.64,69.5335534 36.1109455,69.9548081 37.3670182,69.4669033 C38.6230909,68.9789985 37.008,62.6372066 37.1425091,60.0647058 C37.2770182,57.4922051 36.2006182,54.4767722 36.2006182,54.4767722 Z" id="Path" fill="url(#linearGradient-38)"></path>
                                    <path d="M33.2394545,69.2452754 C33.2283273,68.7903722 31.6243636,65.8157058 31.3105091,62.9921347 C30.9010909,59.3121418 29.0441455,55.4344633 27.3626182,53.9445418 C25.3436727,52.1563124 22.7412,51.2950375 21.6202909,52.6584532 C20.6479636,53.8413311 21.6052364,55.9996952 22.7418545,57.0932749 C24.1969091,58.4932511 30.8680364,62.359282 29.7101455,64.4852916 C29.0821091,65.6384035 27.936,63.9346192 27.4074545,63.1254349 C26.4799636,61.7060461 24.9162545,60.3122172 23.9383636,60.9373048 C22.9215273,61.5876289 23.2497818,63.5984567 25.4634545,64.8693387 C27.6293455,66.1136901 29.556,67.1432081 30.4880727,68.1811382 C31.3690909,69.1621246 30.5175273,69.1268582 30.9963273,69.6888547 C31.5477818,70.3359433 33.2698909,70.4575959 33.2394545,69.2452754 Z" id="Path" fill="url(#linearGradient-39)"></path>
                                    <path d="M38.2640727,68.9789985 C38.2640727,66.7614258 37.2770182,59.576801 39.3408,55.7625372 C41.4045818,51.948597 42.5706545,48.045682 41.5839273,43.7881625 C40.5972,39.530643 35.7522545,31.3255595 36.1109455,28.4874289 C36.4696364,25.6492982 37.9502182,20.8592248 35.3032364,11.5900041 C33.2990182,4.57103392 28.7505818,-0.193803038 25.6133455,1.74422734 C23.4602182,3.07464152 24.4472727,8.04201722 25.524,9.90466177 C26.6004,11.7673063 28.4714182,15.0179559 28.1124,16.8806005 C27.7533818,18.7432451 26.5729091,18.9461073 26.6727273,21.4746061 C26.8700727,26.4471585 33.9129818,34.0753625 35.5725818,40.8610572 C36.9500727,46.4913752 37.4570182,53.2790111 36.0212727,53.5449646 C34.5855273,53.810918 36.1188,67.1684446 36.7877455,68.5396253 C37.4566909,69.9104825 38.2640727,68.9789985 38.2640727,68.9789985 Z" id="Path" fill="url(#linearGradient-40)"></path>
                                    <path d="M42.6010909,9.60991291 C41.2553455,10.4964243 41.1051273,12.6253458 41.6434909,14.1039433 C42.1818545,15.5822172 42.6776727,16.2642486 42.5405455,17.2384405 C42.3913091,18.3022542 40.3275273,18.6571823 39.6697091,20.8449889 C39.0118909,23.033119 40.0886182,27.4084086 41.2249091,30.5429058 C42.3615273,33.677403 42.0624,35.9833033 40.9257818,36.1606056 C39.7894909,36.3382314 38.7723273,34.8004253 38.4133091,32.9080147 C38.0546182,31.0159276 38.2264364,22.6811028 33.1501091,24.1561413 C31.1164364,24.7472567 31.2656727,28.1473838 32.5518545,30.5425823 C33.5431636,32.3893732 36.8882182,36.4262354 38.5929818,41.8960754 C40.1701091,46.9563084 41.4108,50.9718167 38.2941818,51.5943159 C35.6321455,52.1262228 34.1669455,49.1696749 33.8079273,47.2775878 C33.4489091,45.3851772 32.2298182,38.8761129 26.3310545,40.0043119 C23.5498909,40.5362187 25.2867273,47.2135261 29.3815636,50.707481 C32.1735273,53.0897377 35.7195273,56.056639 36.7386545,60.1685635 C37.8451636,64.6328278 36.2598545,69.2158329 36.918,70.1026678 C37.5764727,70.9898263 40.1481818,70.4579195 40.0886182,69.8664805 C40.0284,69.2753651 39.3709091,68.0924871 40.6273091,67.0869114 C41.8833818,66.0819828 44.8046182,64.6917129 46.7878909,63.3027372 C48.7711636,61.9140851 48.582,59.7547504 47.5651636,58.9860091 C46.5489818,58.2172678 45.3744,59.1846653 44.9338909,59.6955418 C44.0659636,60.7004704 42.0624,66.8063985 39.6697091,65.1948243 C38.1472364,64.1691889 40.5857455,59.1451929 42.3016364,56.8567641 C44.8733455,53.4265473 50.6457818,52.1258992 53.9060727,47.8094947 C56.2038545,44.7668841 54.8538545,41.3541387 53.3074909,40.7727296 C51.1841455,39.9738987 49.2375273,41.8756922 48.8137091,43.7959276 C48.2452364,46.3674577 47.0991273,50.4544694 44.0365091,48.1644228 C40.4770909,45.5029473 45.8355273,40.4912461 48.4622182,37.6388795 C53.3372727,32.3463418 55.6700727,24.0377241 51.4534909,22.7373995 C49.5759273,22.1582552 48.0138545,24.7472567 47.5651636,27.7047752 C47.0506909,31.0981078 44.5257818,41.9572253 42.3016364,40.7138446 C40.9257818,39.9444562 43.9766182,37.3434835 44.0960727,35.1553534 C44.2155273,32.9672233 43.9164,29.8330496 44.9931273,27.0538041 C46.0698545,24.2745585 48.8971636,16.9197494 47.3854909,12.5664608 C46.0102909,8.60401367 43.1996727,9.21518886 42.6010909,9.60991291 Z" id="Path" fill="url(#linearGradient-41)"></path>
                                    <path d="M12.9400364,53.6562638 C11.7062182,54.2328197 12.1326545,56.0734633 14.3918182,57.7076856 C16.5285818,59.2535803 19.5938182,59.314083 19.6694182,58.5023104 C19.7450182,57.6902142 18.0248727,57.641359 16.6189091,56.3170922 C15.2126182,54.9928253 14.5826182,52.8888167 12.9400364,53.6562638 Z" id="Path" fill="url(#linearGradient-42)"></path>
                                </g>
                                <g id="left_drone_arm" transform="translate(93.000000, 58.000000)">
                                    <path d="M0.301090909,0.30810566 C-0.245781818,0.553286038 1.43312727,3.75693283 1.96821818,4.65516679 C2.50330909,5.55340075 9.21076364,12.079046 11.8001455,17.4215004 C14.3901818,22.7639547 14.4206182,29.8438642 14.2347273,31.4388408 C14.0491636,33.0338174 18.1986545,33.6920875 18.1986545,33.6920875 C18.1986545,33.6920875 20.2365818,24.8258174 16.3125818,16.9960211 C13.0876364,10.5610143 6.35890909,5.06173585 4.97389091,3.82116226 C3.33294545,2.35073208 0.870872727,0.0524920755 0.301090909,0.30810566 Z" id="Path" fill="url(#linearGradient-43)"></path>
                                    <path d="M15.2103273,15.0365343 C15.6082909,15.6775245 15.9800727,16.3312302 16.3132364,16.9956951 C16.4438182,17.2565253 16.5668727,17.5186596 16.6850182,17.781446 C16.1594182,17.5926702 13.3913455,17.8779532 12.5630182,19.1658023 C12.3273818,18.5707834 12.0744,17.9861977 11.8004727,17.4215004 C11.7314182,17.2790219 11.6581091,17.1352392 11.5831636,16.9914566 C12.2180727,15.6361177 14.4680727,14.9840423 15.2103273,15.0365343 Z" id="Path" fill="url(#linearGradient-44)"></path>
                                    <path d="M18.6470182,30.3237917 C18.4990909,32.3797857 18.1989818,33.6917615 18.1989818,33.6917615 C18.1989818,33.6917615 14.0491636,33.0334913 14.2350545,31.4385147 C14.2825091,31.0325977 14.2982182,30.2533675 14.3122909,29.2612347 C15.8864727,28.8543396 17.6046545,29.479354 18.6470182,30.3237917 Z" id="Path" fill="url(#linearGradient-45)"></path>
                                    <path d="M16.6837091,31.6181615 C15.4656,31.0019502 12.3961091,29.9472181 9.52363636,34.0435562 C6.65116364,38.1398943 5.75738182,42.2606853 7.6608,44.9133283 C9.56389091,47.5659713 13.8449455,48.9460891 15.9653455,47.0681117 C18.4918909,44.8298626 20.1996,38.0649057 19.0659273,34.404154 C18.5184,32.6383336 17.0512364,31.804003 16.6837091,31.6181615 Z" id="Path" fill="url(#linearGradient-46)"></path>
                                    <path d="M9.52330909,34.0435562 C11.5514182,31.1516015 13.6764,30.827846 15.1798909,31.103674 L15.1798909,31.103674 C13.7467636,31.7042355 8.29636364,39.1228981 8.16381818,45.5256272 L8.16381818,45.5256272 C7.98250909,45.3300045 7.81298182,45.1262309 7.66014545,44.9133283 C5.75705455,42.2606853 6.65050909,38.1398943 9.52330909,34.0435562 Z" id="Path" fill="url(#linearGradient-47)"></path>
                                </g>
                                <g id="box" transform="translate(65.000000, 93.000000)">
                                    <polygon id="Path" fill="url(#linearGradient-48)" points="0 45.3192453 43.0108475 47.1669011 43.0108475 12.6069011 0 12.6069011"></polygon>
                                    <path d="M30.8297227,39.8310521 C30.8271356,39.8310521 30.8245485,39.8310521 30.8222847,39.8310521 L11.4188949,39.3690566 C11.2432942,39.3648181 11.1029431,39.2200574 11.1029431,39.0430189 L11.1029431,19.1276558 C11.1029431,19.0406038 11.1372224,18.9574642 11.1986664,18.8961691 C11.2597871,18.834874 11.3496895,18.8025962 11.42892,18.8016181 L30.8323098,18.964637 C31.0098508,18.9659411 31.1531125,19.11168 31.1531125,19.2906747 L31.1531125,39.5050143 C31.1531125,39.5930445 31.1181864,39.6768362 31.0557722,39.7381313 C30.9952983,39.7977962 30.9141275,39.8310521 30.8297227,39.8310521 Z M11.7497227,38.72448 L30.5063329,39.1711517 L30.5063329,19.6141042 L11.7497227,19.4566279 L11.7497227,38.72448 L11.7497227,38.72448 Z" id="Shape" fill="#FFFFFF"></path>
                                    <polygon id="Path" fill="url(#linearGradient-49)" points="52.1734515 32.2777358 43.0108475 47.1669011 43.0108475 12.6069011 52.1734515 0"></polygon>
                                    <polygon id="Path" fill="url(#linearGradient-50)" points="52.1734515 0 14.9567797 0 0 12.6069011 43.0108475 12.6069011"></polygon>
                                    <path d="M47.2317315,40.7654762 C47.0532203,40.7654762 46.9083417,40.6194113 46.9083417,40.4394385 L46.9083417,6.79951698 C46.9083417,6.61954415 47.0532203,6.47347925 47.2317315,6.47347925 C47.4102427,6.47347925 47.5551214,6.61954415 47.5551214,6.79951698 L47.5551214,40.4394385 C47.5551214,40.6194113 47.4102427,40.7654762 47.2317315,40.7654762 Z" id="Path" fill="#FBC881"></path>
                                </g>
                                <g id="Layer_4" transform="translate(51.000000, 34.000000)">
                                    <path d="M0.327272727,28.7728302 C0.459490909,27.0585238 2.72716364,6.84679245 15.4636364,2.52679245 C18.7000364,1.4290234 25.2818182,1.57574038 29.8089818,3.69498566 C37.2809455,7.19271849 45.1505455,13.3251623 47.2909091,18.2581132 C50.0727273,24.6702974 49.3766182,39.5516377 48.9354545,40.6807064 C48.3627273,42.1478762 44.4272727,45.6860377 39.8454545,46.7864151 C36.1953818,47.6631306 23.3181818,48.4981132 18.4909091,46.7864151 C13.6636364,45.074717 -0.163636364,35.130566 0.327272727,28.7728302 Z" id="Path" fill="url(#linearGradient-51)"></path>
                                    <path d="M29.6816727,6.50119245 C30.9312,7.54092679 32.1951273,8.69412226 33.2028,10.0540257 C34.2212727,11.4054521 35.0077091,12.9094642 35.6242909,14.4561872 C36.8561455,17.5610445 37.4652,20.8233781 37.9384364,24.0514777 C38.4021818,27.2890325 38.7081818,30.5376725 38.9133818,33.7938113 C39.1097455,37.0512543 39.2206909,40.3122838 39.1074545,43.5993962 L37.5558545,43.5341887 C37.6952727,40.3344543 37.6160727,37.0991819 37.4508,33.877603 C37.2770182,30.65472 37.0024364,27.4331411 36.5746909,24.2409057 C36.1384364,21.0535608 35.5670182,17.8795834 34.4245091,14.9256815 C33.8527636,13.4536211 33.1311273,12.0483985 32.2029818,10.7934792 C31.2820364,9.52877887 30.1372364,8.45937509 28.9001455,7.40985962 L29.6816727,6.50119245 Z" id="Path" fill="url(#linearGradient-52)"></path>
                                    <path d="M37.3090909,22.0075472 C31.7022545,22.1483955 25.0363636,19.9968725 23.9305091,18.6030611 C23.9305091,18.6030611 23.1954545,26.2867925 23.8909091,31.8431275 C26.1818182,36.1901887 33.0463636,38.5956951 38.2362545,38.2008634 C44.3045455,37.7388679 48.3817091,33.3647457 49.3128,31.1398642 L49.3128,31.1398642 C49.1792727,26.5528392 48.6507273,21.3932921 47.2905818,18.2584392 C46.9963636,17.5796287 46.5898909,16.8779955 46.0944,16.1639728 C45.6928364,19.2378566 42.1756364,21.885283 37.3090909,22.0075472 Z" id="Path" fill="#FDE1A7"></path>
                                    <path d="M23.2363636,43.9335849 C24.2181818,42.5479245 24.5667273,27.7122294 24.2181818,21.4369811 C23.8362545,14.5631275 21.5181818,9.74037736 16.4726182,7.55331623 C13.1593091,6.11712 8.69727273,7.09621132 6.49669091,9.93893434 C1.54407273,17.4554083 0.419236364,27.5811623 0.326945455,28.7728302 C-0.163963636,35.130566 13.6633091,45.074717 18.4905818,46.7864151 C18.7065818,46.863034 18.9435273,46.932806 19.1902909,46.9993177 C21.0514909,46.2129147 22.4944364,44.9804921 23.2363636,43.9335849 Z" id="Path" fill="url(#linearGradient-53)"></path>
                                    <path d="M19.6569818,5.28800604 C21.7646182,7.18456755 25.9818545,10.2476921 30.9819273,8.80301887 C35.0659636,7.6230883 30.4926545,3.4240483 28.5853091,2.67187925 C24.2669455,1.27448151 19.0502182,1.60312755 16.8273818,1.7253917 C16.1296364,1.76386415 13.9195636,2.41300528 13.1972727,2.66959698 C13.0248,2.73089208 13.0094182,3.1994083 13.0444364,3.59815245 C13.9385455,3.14072151 16.7445818,2.66731472 19.6569818,5.28800604 Z" id="Path" fill="url(#linearGradient-54)"></path>
                                    <path d="M5.4,33.7041509 C5.52272727,31.7479245 6.00643636,18.3983094 13.05,20.2550943 C17.9453455,21.5455517 17.0947636,31.1134551 16.8954545,34.5192453 C16.7406545,37.1650415 16.2409091,41.610566 16.2409091,41.610566 L5.4,33.7041509 Z" id="Path" fill="#FDE1A7"></path>
                                    <path d="M13.05,20.2550943 C12.6356727,20.1458717 12.2449091,20.0910974 11.8744364,20.0816423 C16.056,22.0078732 15.2767636,30.862406 15.0866182,34.1123502 C14.9733818,36.0467321 14.6762182,38.9409691 14.5243636,40.3589072 L16.2409091,41.6108921 C16.2409091,41.6108921 16.7406545,37.1653675 16.8954545,34.5195713 C17.0947636,31.1134551 17.9453455,21.5455517 13.05,20.2550943 Z" id="Path" fill="url(#linearGradient-55)"></path>
                                    <path d="M24.2181818,21.4369811 C23.8362545,14.5631275 21.5181818,9.74037736 16.4726182,7.55331623 C16.0360364,7.3638883 15.5785091,7.21945358 15.1098545,7.11251321 C20.0516727,9.32956981 22.3321091,14.1206943 22.7101091,20.926406 C23.0586545,27.2016543 22.7101091,42.0373494 21.7282909,43.4230098 C21.0024,44.4474204 19.7522182,45.7610264 18.0261818,46.6077464 C18.1888364,46.6745842 18.3439636,46.7345751 18.4905818,46.7864151 C18.7065818,46.863034 18.9435273,46.932806 19.1902909,46.9993177 C21.0511636,46.2129147 22.4944364,44.9804921 23.2360364,43.9335849 C24.2181818,42.5479245 24.5667273,27.7122294 24.2181818,21.4369811 Z" id="Path" fill="url(#linearGradient-56)"></path>
                                    <path d="M19.7931273,3.99396226 C22.1848364,5.51981887 25.5315273,9.55486189 30.5319273,8.11018868 C34.6159636,6.93025811 29.9713091,2.92586264 28.0636364,2.17369358 C24.7637455,0.62501434 18.4902545,0.596323019 15.6819273,1.54867925 C14.7744,1.85645887 13.9218545,2.24737811 13.1174182,2.70415698 C14.1807273,2.20140679 16.9664727,2.19097358 19.7931273,3.99396226 Z" id="Path" fill="url(#linearGradient-57)"></path>
                                    <ellipse id="Oval" fill="#9F36AD" transform="translate(24.533735, 2.831302) rotate(22.086556) translate(-24.533735, -2.831302) " cx="24.5337347" cy="2.83130224" rx="3.28466009" ry="1.47739523"></ellipse>
                                    <path d="M49.0768364,39.9096272 C49.0362545,39.9451653 48.9950182,39.9797253 48.9547636,40.0155894 L48.5947636,40.3416272 L48.4213091,40.5023638 C48.3777818,40.5418143 48.3322909,40.5812649 48.2822182,40.6194113 C47.8770545,40.927843 47.322,41.1629162 46.7613818,41.3546264 C45.6241091,41.7344604 44.4024,41.9721419 43.1787273,42.1648302 C41.9511273,42.3516498 40.7104364,42.4973887 39.4651636,42.6085675 C38.2195636,42.7207245 36.9690545,42.7996257 35.7169091,42.8599426 C34.4654182,42.9277585 33.2119636,42.9734038 31.9581818,42.9978566 C29.4552,43.0314385 26.9322545,43.0565434 24.4705091,42.8830913 C23.8565455,42.8341857 23.2569818,42.7810415 22.7146909,42.6584513 C22.1478545,42.5394475 21.5767636,42.3663215 21.0105818,42.1654823 C19.8772364,41.7595653 18.7625455,41.2375789 17.6707636,40.6640785 C15.4836,39.5160996 13.3805455,38.1636951 11.3305091,36.73728 C9.27850909,35.3108649 7.28607273,33.7876166 5.36858182,32.1799245 C4.40705455,31.3798279 3.45730909,30.5644075 2.54814545,29.712797 C2.09421818,29.2866657 1.6488,28.8527094 1.22727273,28.4047336 C0.963163636,28.123363 0.694145455,27.829277 0.465709091,27.5351909 C0.384545455,28.14912 0.342327273,28.5791638 0.327272727,28.7725042 C0.324327273,28.8122808 0.324327273,28.8527094 0.322036364,28.8928121 C0.371127273,28.9534551 0.419563636,29.0147502 0.469636364,29.0744151 C0.887236364,29.5680362 1.32185455,30.0381826 1.76432727,30.4998521 C2.65090909,31.4199306 3.56694545,32.305123 4.50850909,33.1616242 C6.40178182,34.862237 8.37,36.4764498 10.4128364,38.0023064 C12.4615636,39.5200121 14.5911273,40.9418626 16.8578182,42.1778717 C17.9950909,42.7891925 19.1673818,43.3548679 20.4087273,43.813603 C21.0302182,44.0408513 21.6690545,44.2426687 22.3373455,44.3903638 C23.0295273,44.5429494 23.6938909,44.5964196 24.3382909,44.6479336 C26.9204727,44.8174732 29.4591273,44.8164951 32.0076,44.720314 C33.2803636,44.6730385 34.5518182,44.6048966 35.8226182,44.5139321 C37.0927636,44.4141645 38.3619273,44.28864 39.6294545,44.1324679 C40.8969818,43.9749917 42.1635273,43.7904543 43.4245091,43.537123 C44.6854909,43.2815094 45.9441818,42.9851411 47.1871636,42.5110823 C47.3756727,42.4357675 47.5641818,42.3571925 47.7520364,42.2720966 C48.3640364,41.6474083 48.7783636,41.0853192 48.9361091,40.6810325 C48.9812727,40.5639849 49.0297091,40.297286 49.0768364,39.9096272 Z" id="Path" fill="url(#linearGradient-58)"></path>
                                    <ellipse id="Oval" fill="#9F36AD" transform="translate(9.963975, 31.622414) rotate(98.412904) translate(-9.963975, -31.622414) " cx="9.96397514" cy="31.6224142" rx="4.15584857" ry="2.34233678"></ellipse>
                                </g>
                                <g id="drone_monitor" transform="translate(77.000000, 56.000000)">
                                    <g id="Group">
                                        <path d="M22.6270108,4.090944 C22.6270108,1.521 21.0515815,0.29484 18.91152,0.29484 C18.0519923,0.29484 17.2602969,0.57252 16.61796,1.036464 L16.6147754,1.033968 C16.6147754,1.033968 15.2485754,2.220816 12.0470815,2.34 C8.77966615,2.46168 6.75234,1.596504 6.01414615,1.207752 C5.91606,1.146288 5.81542615,1.088256 5.71160769,1.035528 C5.70332769,1.030224 5.69377385,1.023984 5.69377385,1.023984 C5.69377385,1.023984 5.69122615,1.025544 5.69090769,1.025856 C5.16130615,0.760032 4.56323538,0.607152 3.92726769,0.607152 C1.78752462,0.607152 0.0525461538,2.306616 0.0525461538,4.403256 C0.0525461538,4.920552 0.158912308,5.412888 0.350307692,5.862168 C0.350307692,5.86248 0.349989231,5.862792 0.349989231,5.863104 C0.596796923,6.786 4.11834462,12.74364 12.0216046,12.7661555 C19.2236123,12.786696 22.6270108,6.63 22.6270108,4.090944 Z" id="Path" fill="#C7A0F6"></path>
                                        <path d="M3.89796923,6.24 L2.97952615,5.375448 C3.72727385,4.613232 4.73329385,4.19328 5.81192308,4.19328 C6.70520769,4.19328 7.54690154,4.479696 8.24624308,5.021328 L7.45645846,6.000384 C6.98418,5.63472 6.41540769,5.44128 5.81192308,5.44128 C5.08296462,5.440968 4.40336769,5.724576 3.89796923,6.24 Z" id="Path" fill="#212F66"></path>
                                        <path d="M16.2189277,5.52396 L15.3004846,4.659408 C16.0482323,3.897192 17.0542523,3.47724 18.1328815,3.47724 C19.0261662,3.47724 19.86786,3.763656 20.5672015,4.305288 L19.7774169,5.284344 C19.3051385,4.91868 18.7363662,4.72524 18.1328815,4.72524 C17.4042415,4.72524 16.7243262,5.008848 16.2189277,5.52396 Z" id="Path" fill="#212F66"></path>
                                        <path d="M11.95218,10.842 C10.4726077,10.842 9.14334923,9.967464 8.71979538,8.71572 L9.32423538,8.519472 C9.66276,9.519744 10.7433,10.218 11.95218,10.218 C13.2171092,10.218 14.3100692,9.478872 14.6106969,8.42088 L15.2243723,8.588112 C14.8476323,9.915048 13.5018138,10.842 11.95218,10.842 Z" id="Path" fill="#9F36AD"></path>
                                    </g>
                                </g>
                                <g id="propeller" transform="translate(56.000000, 19.000000)">
                                    <polygon id="Path" fill="#C7A0F6" points="18.8582057 5.10459429 30.3099943 1.75332 30.6936857 3.33596571 18.9790457 5.60326286"></polygon>
                                    <polygon id="Path" fill="#C7A0F6" points="18.8458286 5.57590286 8.48616 2.78909143 8.99394857 1.24162286 18.9914229 5.13195429"></polygon>
                                    <polygon id="Path" fill="#C7A0F6" points="19.0086857 5.63941714 7.35658286 9.85578857 6.86638286 8.30278286 18.8285657 5.06844"></polygon>
                                    <polygon id="Path" fill="#C7A0F6" points="19.0301829 5.09905714 29.6676857 9.16788 29.01528 10.6599771 18.8070686 5.6088"></polygon>
                                    <path d="M19.7601086,4.97202857 L18.0771429,4.97202857 L18.0771429,18.1856057 L18.0787714,18.1856057 C18.0787714,18.1882114 18.0771429,18.1908171 18.0771429,18.1934229 C18.0771429,18.4106743 18.4539943,18.5868857 18.9184629,18.5868857 C19.3829314,18.5868857 19.7597829,18.4106743 19.7597829,18.1934229 C19.7597829,18.1908171 19.7581543,18.1882114 19.7581543,18.1856057 L19.7597829,18.1856057 L19.7597829,4.97202857 L19.7601086,4.97202857 Z" id="Path" fill="url(#linearGradient-59)"></path>
                                    <ellipse id="Oval" fill="#FF58B8" cx="18.9184629" cy="5.35409143" rx="2.15785714" ry="1.07909143"></ellipse>
                                    <ellipse id="Oval" fill="#9F36AD" cx="18.9184629" cy="4.44046286" rx="1.21198286" ry="1.01525143"></ellipse>
                                    <path d="M18.9591771,0.244285714 C8.50309714,0.244285714 0.0270342857,3.01513714 0.0270342857,6.43285714 C0.0270342857,9.85057714 8.50309714,12.6214286 18.9591771,12.6214286 C29.4152571,12.6214286 37.89132,9.85057714 37.89132,6.43285714 C37.89132,3.01513714 29.4152571,0.244285714 18.9591771,0.244285714 Z M19.0461429,9.77142857 C11.0889429,9.77142857 4.63849714,8.00312571 4.63849714,5.82214286 C4.63849714,3.64116 11.0889429,1.87285714 19.0461429,1.87285714 C27.0033429,1.87285714 33.4537886,3.64116 33.4537886,5.82214286 C33.4537886,8.00312571 27.0030171,9.77142857 19.0461429,9.77142857 Z" id="Shape" fill="url(#linearGradient-60)"></path>
                                    <path d="M28.62996,8.77083429 C28.6201886,8.76594857 28.1352,8.89656 28.1299886,8.88678857 C27.5254629,9.02163429 26.8792457,9.1428 26.1991543,9.24963429 C26.2460571,9.29034857 26.2971943,9.32748 26.3538686,9.35874857 C26.3346514,9.34246286 26.3724343,9.3594 26.3880686,9.36591429 C26.4089143,9.37503429 26.43204,9.38643429 26.45484,9.39913714 C26.5010914,9.42421714 26.5476686,9.45418286 26.5926171,9.48675429 C26.6825143,9.55222286 26.7665486,9.62876571 26.8398343,9.71410286 C26.9870571,9.88477714 27.09552,10.09356 27.1518686,10.3394743 C27.2694514,10.8326057 27.1574057,11.4556971 26.9209371,12.04752 C27.2981143,11.9901943 28.4859943,11.7758743 28.8491657,11.7107314 C29.2429543,11.4612343 29.8943829,9.38480571 28.62996,8.77083429 Z" id="Path" fill="#F9A449"></path>
                                    <path d="M8.93238857,11.5283314 C8.69526857,10.9361829 8.58289714,10.31244 8.70080571,9.81865714 C8.75715429,9.57241714 8.86561714,9.36396 9.01284,9.19328571 C9.08645143,9.10762286 9.17016,9.03140571 9.26005714,8.96593714 C9.30500571,8.93336571 9.35158286,8.90372571 9.39783429,8.87832 C9.42063429,8.86561714 9.44376,8.85421714 9.46460571,8.84509714 C9.48024,8.83858286 9.51802286,8.82164571 9.49880571,8.83793143 C9.52193143,8.82522857 9.54114857,8.80829143 9.56264571,8.79396 C8.91154286,8.63761714 7.45885714,8.1396 7.41684,8.15393143 C6.03581143,8.62133143 6.62633143,10.8811371 6.93966857,11.2143429 C7.29665143,11.2990286 8.58908571,11.6117143 8.96430857,11.6882571 C8.96333143,11.6364686 8.95453714,11.5843543 8.93434286,11.5335429 L8.93238857,11.5283314 Z" id="Path" fill="#F9A449"></path>
                                    <path d="M9.26233714,2.92328571 C9.77794286,2.8044 11.0658171,2.53242857 11.6394,2.43406286 C11.6394,2.43406286 11.1016457,1.05857143 9.86751429,1.00417714 C9.02163429,1.15563429 7.70835429,1.45887429 6.94748571,1.64941714 C8.46173143,1.45203429 9.24930857,2.89885714 9.26233714,2.92328571 Z" id="Path" fill="#F9A449"></path>
                                    <path d="M27.4482686,2.61353143 C28.0045886,2.73697714 29.8197943,3.21252 30.30348,3.35713714 C30.3086914,3.33205714 30.7871657,2.08326857 32.5075886,2.11193143 C31.5600857,1.79436 30.5099829,1.51033714 29.3735657,1.26507429 C28.0726629,1.30285714 27.4619486,2.57184 27.4482686,2.61353143 Z" id="Path" fill="#F9A449"></path>
                                </g>
                                <g id="movement" transform="translate(48.000000, 14.000000)" fill="#00FFFF">
                                    <path d="M40.8863508,18.2573217 C42.3005902,17.8284522 43.700223,17.3983304 45.0716164,16.9140522 C46.4410623,16.430087 47.7855148,15.8976 49.0507672,15.2633739 C49.6791738,14.94 50.2971934,14.6078609 50.8632787,14.2225043 C51.4290393,13.8390261 51.9487082,13.4136 52.3856066,12.959687 C52.8169869,12.5020174 53.1642984,12.0133565 53.3178295,11.4811826 C53.3606754,11.3531478 53.3911869,11.2041391 53.4087148,11.0826783 L53.4249443,10.8622957 C53.4288393,10.7909217 53.4304623,10.7189217 53.4268918,10.6459826 C53.4135836,10.3548522 53.3545082,10.0505739 53.2571311,9.73596522 L53.2522623,9.72031304 C53.1860459,9.50713043 53.3119869,9.28236522 53.5330328,9.21850435 C53.6998721,9.17029565 53.8738525,9.22789565 53.9773967,9.3506087 C54.2367443,9.65895652 54.4503246,10.0261565 54.5733443,10.4359304 C54.6054787,10.5379826 54.6317705,10.6422261 54.6541672,10.7480348 C54.6765639,10.8466435 54.6885738,10.986887 54.6979869,11.0610783 C54.7155148,11.2958609 54.7116197,11.5030957 54.6872754,11.7247304 C54.5720459,12.6021913 54.1218393,13.3776 53.5758787,13.9783304 C53.0295934,14.5897043 52.3817115,15.0567652 51.7218197,15.4646609 C51.0583574,15.869113 50.3763934,16.2206609 49.6743049,16.5149217 C48.274023,17.1100174 46.8299213,17.5451478 45.3705639,17.877913 C43.910882,18.2088 42.4339967,18.4404522 40.9506197,18.5637913 C40.8607082,18.5716174 40.7815082,18.5080696 40.7730689,18.4213565 C40.7656033,18.3471652 40.8152656,18.2795478 40.8863508,18.2573217 Z" id="Path"></path>
                                    <path d="M5.41124262,15.4014261 C5.56315082,15.8609739 5.8276918,16.1871652 6.18928525,16.473913 C6.54698361,16.7581565 6.98680328,16.9794783 7.45161639,17.172313 C8.39033115,17.5479652 9.42837049,17.8062261 10.4803672,18.0237913 C11.5339869,18.2510609 12.6151967,18.4125913 13.7035475,18.5522087 L16.9906721,18.9394435 C17.0799344,18.950087 17.1438787,19.0283478 17.1328426,19.1147478 C17.1234295,19.1901913 17.0585115,19.2468522 16.9832066,19.252487 C15.8734328,19.3373217 14.7600885,19.3698783 13.6434984,19.3504696 C12.5265836,19.3348174 11.4057738,19.2737739 10.2797705,19.1385391 C9.15863607,18.9838957 8.02419344,18.7534957 6.94136066,18.2548174 C6.40286557,18.0065739 5.87313443,17.6797565 5.43623607,17.2189565 C5.21940984,16.9894957 5.03049836,16.7212174 4.9003377,16.4263304 C4.83412131,16.279513 4.78478361,16.1251826 4.75135082,15.969913 C4.71759344,15.8209043 4.70071475,15.630887 4.70525902,15.5125565 L4.7059082,15.4950261 C4.71337377,15.3028174 4.88118689,15.1525565 5.08048525,15.1597565 C5.23661311,15.1644522 5.36612459,15.2655652 5.41124262,15.4014261 Z" id="Path"></path>
                                    <path d="M20.5189672,0.466121739 C18.7480033,0.748486957 16.9903475,1.06591304 15.2492459,1.4306087 C14.3793443,1.61561739 13.5156098,1.8216 12.659341,2.04417391 C11.8017738,2.26205217 10.9523213,2.50246957 10.1155279,2.76886957 C8.43966885,3.29227826 6.80990164,3.93057391 5.2963377,4.71412174 C3.7918623,5.50205217 2.3824918,6.444 1.38178033,7.68052174 L1.37528852,7.68834783 C1.14028525,7.97853913 0.705659016,8.0301913 0.404439344,7.80354783 C0.124642623,7.59286957 0.0603737705,7.21314783 0.241170492,6.92796522 C0.758891803,6.11812174 1.43728525,5.42629565 2.17735082,4.84309565 C2.9203377,4.25989565 3.72467213,3.77436522 4.55497377,3.36083478 C6.21817377,2.5322087 7.97550492,1.97686957 9.73900328,1.52702609 C10.6238361,1.30852174 11.5132131,1.12194783 12.4051869,0.958226087 C13.298459,0.800765217 14.194977,0.671791304 15.0921443,0.559408696 C16.8851803,0.331513043 18.6876295,0.205043478 20.4871574,0.154956522 C20.5770689,0.15213913 20.6520492,0.220069565 20.6553766,0.306469565 C20.6578918,0.385356522 20.5981672,0.453286957 20.5189672,0.466121739 Z" id="Path"></path>
                                </g>
                                <g id="right_drone_arm" transform="translate(51.000000, 63.000000)">
                                    <g id="Group">
                                        <path d="M10.4031831,0.270859355 C10.9827831,0.342394839 11.1162185,3.64668387 10.8808754,4.66053677 C10.6455323,5.67438968 6.31636615,13.8733316 5.46702923,19.7262348 C4.61769231,25.5791381 5.89153846,32.5701058 6.52846154,34.0333316 C7.16538462,35.4965574 3.50307692,37.3525781 3.50307692,37.3525781 C3.50307692,37.3525781 -0.972263077,29.516191 0.391707692,20.9000671 C1.51269231,13.8190297 6.16032,6.59036903 7.08576923,4.99902968 C8.18223231,3.11374452 9.79938,0.196397419 10.4031831,0.270859355 Z" id="Path" fill="url(#linearGradient-61)"></path>
                                        <path d="M2.45088,18.6083303 C1.90981385,18.6005265 1.37575385,18.6369445 0.845196923,18.7091303 C0.662081538,19.4371665 0.506990769,20.1697548 0.391389231,20.9007174 C0.345849231,21.1878348 0.307952308,21.4736516 0.275150769,21.7588181 C0.454763077,21.6866323 0.639789231,21.6180232 0.829910769,21.5578684 C1.38371538,21.3842323 1.96140462,21.2616465 2.53208769,21.2066942 C3.51135692,21.1097961 4.47406615,21.2184 5.26671692,21.6128206 C5.31225692,20.97648 5.37722308,20.3450168 5.46671077,19.72656 C5.48932154,19.5704826 5.51575385,19.4118039 5.54314154,19.2524748 C5.28805385,19.1373677 5.0301,19.0336413 4.76800615,18.9539768 C3.99924,18.7195355 3.21741692,18.6200361 2.45088,18.6083303 Z" id="Path" fill="url(#linearGradient-62)"></path>
                                        <path d="M2.10598615,34.2798039 C2.84226923,36.1930529 3.50307692,37.3529032 3.50307692,37.3529032 C3.50307692,37.3529032 7.16538462,35.4968826 6.52846154,34.0336568 C6.36636462,33.6613471 6.16318615,32.9300594 5.96446615,31.9522994 C4.38394154,32.264129 2.94067385,33.3872361 2.10598615,34.2798039 Z" id="Path" fill="url(#linearGradient-63)"></path>
                                    </g>
                                    <g id="Group" transform="translate(2.866154, 33.166452)">
                                        <path d="M1.44040154,1.76334968 C2.39228308,0.815829677 4.93615385,-1.09741935 8.7975,1.95096774 C12.6588462,4.99935484 14.6890385,8.65741935 13.6938462,11.7464516 C12.6986538,14.8354839 9.12456,17.4175897 6.60807692,16.2580645 C3.60912462,14.876129 0.0531830769,8.94193548 0.039780629,5.12129032 C0.0334384615,3.27827613 1.15314923,2.04949161 1.44040154,1.76334968 Z" id="Path" fill="url(#linearGradient-64)"></path>
                                        <path d="M7.35104769,3.46849548 C6.58132615,3.8749471 3.94096154,7.28914065 3.90115385,8.58978581 C3.86707846,9.70053677 4.75463077,10.5706684 5.41798615,10.4080877 C6.08134154,10.2455071 8.59846154,6.46258065 9.66021231,5.71763613 C10.32516,5.25070452 7.35104769,3.46849548 7.35104769,3.46849548 Z" id="Path" fill="url(#linearGradient-65)"></path>
                                        <path d="M14.2314092,6.27984 C14.0123077,6.62548645 13.87314,8.90161548 14.29128,9.22677677 C14.70942,9.55193806 15.8498308,8.69156129 16.7991646,8.49516387 C17.84754,8.27828129 18.7701231,8.31632516 19.0484585,8.03993806 C19.3267938,7.76355097 19.4653246,5.86103226 18.0325662,5.41003355 C16.5998077,4.95903484 14.5164323,5.82949161 14.2314092,6.27984 Z" id="Path" fill="url(#linearGradient-66)"></path>
                                        <path d="M14.3508323,13.3927432 C14.9896662,13.1921187 17.7988154,16.0398813 17.8141015,16.7256465 C17.8341646,17.61984 16.1622415,19.9434426 14.7555969,19.9434426 C13.3489523,19.9434426 11.5244862,17.4370994 11.4448708,16.6850013 C11.3875477,16.146209 14.00562,13.5010219 14.3508323,13.3927432 Z" id="Path" fill="url(#linearGradient-67)"></path>
                                        <path d="M6.52846154,18.2903226 C6.68164154,17.9280929 9.39461538,17.0709677 9.79269231,17.4367742 C10.1907692,17.8025806 12.0840231,19.7333884 11.9821154,20.5664516 C11.9025,21.2167742 10.6085908,22.4566142 9.61339846,22.1314529 C8.61820615,21.8062916 6.15044769,19.1845161 6.52846154,18.2903226 Z" id="Path" fill="url(#linearGradient-68)"></path>
                                        <path d="M18.0784246,5.42824258 C18.4277769,6.14229677 18.3080354,7.03128774 18.1246015,7.21370323 C17.8462662,7.49009032 16.9236831,7.45204645 15.8753077,7.66892903 C15.2613138,7.79574194 14.5683415,8.1992671 14.0416062,8.38135742 C14.0744077,8.78455742 14.1508385,9.11687226 14.29128,9.22612645 C14.70942,9.55128774 15.8498308,8.69091097 16.7991646,8.49451355 C17.84754,8.27763097 18.7701231,8.31567484 19.0484585,8.03928774 C19.3232908,7.76647742 19.4592738,5.90688 18.0784246,5.42824258 Z" id="Path" fill="url(#linearGradient-69)"></path>
                                        <path d="M14.2008369,14.3327845 C14.7903092,14.1477677 17.2214446,16.553311 17.60742,17.4660387 C17.7402185,17.1785961 17.8182415,16.9178168 17.8137831,16.7256465 C17.7984969,16.0398813 14.9893477,13.1921187 14.3505138,13.3927432 C14.00562,13.5010219 11.3875477,16.146209 11.4445523,16.6850013 C11.4550615,16.7832 11.4964615,16.912289 11.5614277,17.0605626 C12.2251015,16.1000361 13.92696,14.4186271 14.2008369,14.3327845 Z" id="Path" fill="url(#linearGradient-70)"></path>
                                        <path d="M9.79269231,17.4367742 C9.39461538,17.0709677 6.68164154,17.9280929 6.52846154,18.2903226 C6.46922769,18.4301419 6.48610615,18.6151587 6.54948,18.8235871 C7.42206462,18.4662348 8.86119231,18.1121342 9.14303077,18.3712877 C9.54110769,18.7370942 11.4343615,20.6679019 11.3324538,21.5009652 C11.3299062,21.5224258 11.3225815,21.5458374 11.3174862,21.5685987 C11.6849908,21.240511 11.9477215,20.8483665 11.9824338,20.5664516 C12.0840231,19.7333884 10.1907692,17.8025806 9.79269231,17.4367742 Z" id="Path" fill="url(#linearGradient-71)"></path>
                                        <path d="M8.7975,1.95096774 C6.07146923,-0.201274839 4.00338,0.120309677 2.68717846,0.828510968 L2.68717846,0.828510968 C4.19318308,0.975483871 11.4165277,6.42291097 13.4043646,12.4787148 L13.4043646,12.4787148 C13.5158262,12.2387458 13.6139123,11.9945497 13.6938462,11.7467768 C14.6890385,8.65741935 12.6588462,4.99935484 8.7975,1.95096774 Z" id="Path" fill="url(#linearGradient-72)"></path>
                                    </g>
                                </g>
                            </g>
                        </g>
                    </g>
                </g>
            </g>
        </g>
    </g>
</svg>